<svg id="Layer_1" data-name="Layer 1" xmlns="http://www.w3.org/2000/svg" viewBox="0 0 512 512"><defs><style>.cls-1{fill:#eae4d0;}</style></defs><title>stamp</title><polygon class="cls-1" points="208.99 28.19 195.52 30.73 183.81 35.69 183.23 33.99 180.72 33.42 175.66 25.61 173.3 23.77 177.6 21.85 189.46 18.36 203.07 15.41 204.72 17.74 206.76 21.14 208.21 25.27 208.99 28.19"/><polygon class="cls-1" points="144.76 39.08 143.08 38.3 147.19 34.22 151.75 32.47 161.51 29.6 167.45 26.06 169.7 27.07 175.81 35.95 177.14 36.64 177.01 38.11 165.71 41.98 160.25 45.31 154.8 47.57 151.47 49.67 150.11 46.79 145.71 41.69 144.76 39.08"/><polygon class="cls-1" points="145.46 52.08 144.04 53.76 134.56 59.12 127.87 63.86 121.46 68.02 119.07 63.53 115.81 61.08 110.32 58.3 115.68 53.94 119.94 51.11 131.61 43.23 135.51 41.45 138 42.53 139.33 45.12 143.75 49.49 145.46 52.08"/><polygon class="cls-1" points="115.64 70.61 104.6 78.74 96.21 88.29 94.94 87.01 92.44 87.58 84.49 82.75 81.56 82.11 84.6 78.51 93.78 70.22 104.76 61.66 107.26 63.05 110.57 65.23 113.67 68.31 115.64 70.61"/><polygon class="cls-1" points="62.49 108.29 60.64 108.31 62.57 102.85 65.92 99.3 73.47 92.47 77.29 86.71 79.75 86.64 89.11 92 90.61 92.04 91.13 93.42 82.62 101.8 79.15 107.17 75.22 111.58 73.13 114.92 70.66 112.91 64.48 110.23 62.49 108.29"/><polygon class="cls-1" points="68.76 119.69 68.21 121.82 62 130.76 58.02 137.94 54.05 144.46 49.95 141.45 45.95 140.67 39.8 140.54 42.74 134.29 45.35 129.9 52.44 117.73 55.19 114.43 57.9 114.33 60.22 116.08 66.09 118.1 68.76 119.69"/><polygon class="cls-1" points="48.97 149.8 42.55 161.91 39.13 174.15 37.43 173.55 35.43 175.15 26.17 174.25 23.25 174.94 24.43 170.38 29.1 158.93 35.29 146.45 38.13 146.62 42.07 147.14 46.2 148.58 48.97 149.8"/><polygon class="cls-1" points="17.43 206.8 15.77 207.62 15.14 201.87 16.62 197.21 20.46 187.79 21.4 180.94 23.59 179.81 34.35 180.57 35.71 179.96 36.78 180.98 32.75 192.22 31.96 198.57 30.32 204.24 29.89 208.16 26.79 207.43 20.06 207.69 17.43 206.8"/><polygon class="cls-1" points="28.02 214.36 28.45 216.51 26.73 227.26 26.27 235.45 25.51 243.06 20.52 242.12 16.57 243.15 10.98 245.7 10.91 238.8 11.35 233.71 12.46 219.66 13.51 215.5 15.91 214.24 18.76 214.81 24.93 214.08 28.02 214.36"/><polygon class="cls-1" points="23.25 250.07 22.72 263.76 24.95 276.28 23.16 276.47 22.05 278.79 13.31 281.99 10.99 283.88 10.07 279.25 9.31 266.91 9.47 252.99 12.11 251.9 15.88 250.67 20.23 250.17 23.25 250.07"/><polygon class="cls-1" points="19.56 315.11 18.42 316.57 15.36 311.66 14.67 306.82 14.04 296.66 11.92 290.09 13.4 288.11 23.43 284.14 24.39 282.99 25.8 283.45 27.05 295.33 29.08 301.39 30.07 307.21 31.38 310.92 28.27 311.61 22.31 314.77 19.56 315.11"/><polygon class="cls-1" points="32.38 317.32 33.71 319.08 36.82 329.51 39.95 337.09 42.58 344.27 37.67 345.59 34.56 348.23 30.63 352.96 27.57 346.76 25.76 341.99 20.67 328.85 19.8 324.65 21.42 322.47 24.24 321.75 29.48 318.41 32.38 317.32"/><polygon class="cls-1" points="43.58 351.56 49.04 364.13 56.48 374.45 54.95 375.39 54.96 377.96 48.47 384.64 47.2 387.35 44.37 383.58 38.33 372.79 32.43 360.18 34.34 358.05 37.2 355.3 40.9 352.97 43.58 351.56"/><polygon class="cls-1" points="68.47 411.77 68.08 413.58 63.19 410.48 60.47 406.42 55.5 397.54 50.73 392.54 51.21 390.12 58.52 382.19 58.89 380.74 60.35 380.54 66.63 390.7 71.09 395.28 74.51 400.09 77.3 402.87 74.8 404.84 70.8 410.27 68.47 411.77"/><polygon class="cls-1" points="80.98 408.2 82.94 409.21 90.26 417.26 96.38 422.73 101.85 428.06 98.01 431.38 96.35 435.1 94.86 441.07 89.42 436.82 85.71 433.3 75.43 423.67 72.83 420.26 73.33 417.59 75.56 415.72 78.84 410.44 80.98 408.2"/><polygon class="cls-1" points="105.92 434.2 116.3 443.15 127.47 449.22 126.51 450.73 127.63 453.05 124.68 461.87 124.71 464.87 120.52 462.7 110.4 455.6 99.62 446.79 100.41 444.05 101.8 440.33 104.12 436.63 105.92 434.2"/><polygon class="cls-1" points="154.47 477.64 154.9 479.44 149.15 478.77 144.94 476.29 136.61 470.45 130.14 468.01 129.52 465.63 132.67 455.31 132.37 453.84 133.6 453.03 143.67 459.46 149.68 461.65 154.85 464.5 158.57 465.8 157.16 468.65 155.92 475.28 154.47 477.64"/><polygon class="cls-1" points="164.2 469 166.39 469.06 176.49 473.13 184.37 475.41 191.61 477.84 189.59 482.5 189.71 486.57 190.96 492.6 184.21 491.12 179.34 489.56 165.9 485.35 162.08 483.4 161.38 480.78 162.57 478.13 163.24 471.95 164.2 469"/><polygon class="cls-1" points="197.94 481.6 211.18 485.17 223.88 485.79 223.66 487.57 225.68 489.17 226.85 498.4 228.18 501.09 223.46 500.95 211.26 498.94 197.72 495.69 197.25 492.87 196.89 488.92 197.38 484.57 197.94 481.6"/><polygon class="cls-1" points="260.53 499.69 261.7 501.12 256.23 503.01 251.36 502.61 241.32 500.96 234.44 501.56 232.84 499.68 231.2 489.02 230.3 487.83 231.05 486.56 242.91 487.99 249.28 487.35 255.17 487.68 259.08 487.24 259.06 490.42 260.81 496.93 260.53 499.69"/><polygon class="cls-1" points="265.55 487.68 267.55 486.78 278.41 486.07 286.5 484.7 294.08 483.75 294.28 488.83 296.16 492.44 299.89 497.33 293.18 498.93 288.11 499.63 274.18 501.67 269.88 501.58 268.12 499.52 268.04 496.61 265.96 490.76 265.55 487.68"/><polygon class="cls-1" points="301.42 484.4 314.89 481.87 326.6 476.91 327.18 478.62 329.69 479.18 334.75 486.99 337.11 488.83 332.81 490.76 320.94 494.24 307.33 497.18 305.69 494.85 303.64 491.45 302.2 487.32 301.42 484.4"/><polygon class="cls-1" points="365.66 473.54 367.33 474.32 363.23 478.4 358.66 480.15 348.9 483.02 342.96 486.55 340.71 485.54 334.6 476.65 333.27 475.97 333.4 474.5 344.71 470.64 350.17 467.31 355.62 465.05 358.95 462.95 360.31 465.83 364.71 470.93 365.66 473.54"/><polygon class="cls-1" points="364.97 460.54 366.38 458.86 375.86 453.51 382.56 448.77 388.97 444.62 391.36 449.11 394.61 451.56 400.1 454.34 394.74 458.7 390.48 461.52 378.81 469.4 374.9 471.18 372.42 470.09 371.09 467.5 366.68 463.14 364.97 460.54"/><polygon class="cls-1" points="395.86 442.02 406.91 433.9 415.31 424.36 416.57 425.64 419.07 425.06 427.02 429.9 429.95 430.54 426.9 434.14 417.73 442.42 406.74 450.98 404.24 449.59 400.93 447.41 397.83 444.32 395.86 442.02"/><polygon class="cls-1" points="449.03 404.37 450.88 404.35 448.95 409.81 445.59 413.36 438.04 420.18 434.23 425.94 431.76 426.01 422.4 420.65 420.91 420.61 420.39 419.23 428.9 410.85 432.37 405.48 436.3 401.08 438.39 397.74 440.87 399.74 447.05 402.43 449.03 404.37"/><polygon class="cls-1" points="442.77 392.96 443.32 390.83 449.54 381.9 453.51 374.73 457.49 368.2 461.59 371.21 465.58 372 471.74 372.13 468.8 378.38 466.19 382.78 459.09 394.94 456.34 398.24 453.63 398.33 451.31 396.58 445.44 394.56 442.77 392.96"/><polygon class="cls-1" points="462.58 362.87 469 350.76 472.43 338.52 474.12 339.13 476.13 337.52 485.39 338.44 488.3 337.74 487.12 342.3 482.45 353.75 476.26 366.22 473.41 366.06 469.48 365.53 465.35 364.09 462.58 362.87"/><polygon class="cls-1" points="494.15 305.88 495.81 305.06 496.43 310.82 494.95 315.48 491.11 324.89 490.16 331.74 487.97 332.88 477.21 332.1 475.85 332.72 474.78 331.7 478.81 320.45 479.61 314.11 481.25 308.44 481.68 304.52 484.78 305.25 491.52 305 494.15 305.88"/><polygon class="cls-1" points="483.56 298.32 483.13 296.17 484.86 285.42 485.32 277.23 486.08 269.63 491.08 270.56 495.02 269.54 500.62 266.99 500.68 273.89 500.24 278.98 499.12 293.02 498.07 297.19 495.67 298.45 492.82 297.88 486.65 298.6 483.56 298.32"/><polygon class="cls-1" points="488.35 262.62 488.88 248.92 486.66 236.4 488.45 236.21 489.56 233.9 498.3 230.7 500.62 228.81 501.54 233.44 502.29 245.78 502.13 259.7 499.49 260.79 495.72 262.02 491.37 262.51 488.35 262.62"/><polygon class="cls-1" points="492.07 197.57 493.21 196.12 496.27 201.03 496.95 205.87 497.58 216.02 499.7 222.6 498.22 224.57 488.19 228.54 487.23 229.69 485.82 229.23 484.58 217.35 482.54 211.29 481.56 205.47 480.25 201.75 483.36 201.07 489.32 197.92 492.07 197.57"/><polygon class="cls-1" points="479.25 195.35 477.92 193.6 474.82 183.17 471.69 175.59 469.07 168.41 473.98 167.08 477.09 164.45 481.03 159.72 484.08 165.92 485.89 170.7 490.97 183.83 491.83 188.04 490.22 190.22 487.4 190.94 482.16 194.27 479.25 195.35"/><polygon class="cls-1" points="468.07 161.11 462.61 148.53 455.18 138.22 456.71 137.27 456.71 134.7 463.2 128.03 464.47 125.32 467.3 129.09 473.33 139.88 479.22 152.5 477.32 154.62 474.45 157.37 470.75 159.7 468.07 161.11"/><polygon class="cls-1" points="443.21 100.89 443.61 99.08 448.49 102.18 451.21 106.24 456.18 115.12 460.94 120.13 460.46 122.55 453.15 130.48 452.78 131.93 451.31 132.12 445.04 121.96 440.58 117.38 437.17 112.56 434.38 109.78 436.88 107.82 440.88 102.39 443.21 100.89"/><polygon class="cls-1" points="430.7 104.45 428.74 103.44 421.42 95.39 415.31 89.92 409.84 84.58 413.68 81.26 415.35 77.54 416.84 71.57 422.28 75.83 425.98 79.35 436.26 88.98 438.86 92.4 438.35 95.06 436.12 96.94 432.85 102.21 430.7 104.45"/><polygon class="cls-1" points="405.77 78.44 395.4 69.48 384.23 63.41 385.2 61.9 384.08 59.58 387.03 50.76 387 47.76 391.19 49.93 401.31 57.04 412.08 65.85 411.29 68.59 409.9 72.31 407.57 76.01 405.77 78.44"/><polygon class="cls-1" points="357.25 34.97 356.82 33.17 362.56 33.84 366.78 36.33 375.1 42.17 381.57 44.61 382.19 47 379.04 57.32 379.33 58.78 378.1 59.6 368.04 53.16 362.03 50.97 356.86 48.11 353.14 46.82 354.55 43.96 355.8 37.34 357.25 34.97"/><polygon class="cls-1" points="347.51 43.61 345.32 43.55 335.23 39.47 327.35 37.19 320.1 34.76 322.13 30.09 322.01 26.02 320.77 20 327.51 21.48 332.38 23.04 345.82 27.26 349.64 29.21 350.34 31.83 349.14 34.48 348.48 40.66 347.51 43.61"/><polygon class="cls-1" points="312.7 30.99 299.47 27.42 286.77 26.8 286.99 25.01 284.98 23.41 283.81 14.18 282.48 11.49 287.19 11.63 299.4 13.65 312.93 16.91 313.4 19.72 313.76 23.68 313.27 28.02 312.7 30.99"/><polygon class="cls-1" points="250.13 12.87 248.96 11.44 254.43 9.55 259.3 9.96 269.34 11.62 276.22 11.01 277.81 12.9 279.45 23.56 280.35 24.75 279.6 26.02 267.74 24.59 261.37 25.22 255.48 24.88 251.57 25.33 251.59 22.14 249.85 15.64 250.13 12.87"/><polygon class="cls-1" points="245.1 24.88 243.1 25.78 232.24 26.48 224.15 27.85 216.57 28.8 216.37 23.72 214.5 20.1 210.76 15.21 217.48 13.62 222.54 12.92 236.48 10.89 240.78 10.98 242.54 13.04 242.61 15.95 244.69 21.8 245.1 24.88"/><polygon class="cls-1" points="221.48 134.55 226.05 132.8 233.08 132 233.26 129.39 233.13 126.84 233.12 124.44 234.62 117.17 230.11 117.08 223.92 120.04 220.17 120.3 219.78 123.86 219.35 128.37 220.35 131.79 221.48 134.55"/><polygon class="cls-1" points="257.01 117.93 258.29 115.94 251.4 114.98 246.57 115.33 241.98 115.59 240.98 116.62 239.49 123.16 238.81 126.32 239.03 128.37 239.18 130.84 246.59 129.42 251.09 129.84 253.29 129.85 254.15 130.06 254.1 126.34 256.72 121.25 257.01 117.93"/><polygon class="cls-1" points="260.53 129.9 262.58 130.69 267.78 130.33 270.99 129.97 273.42 131.12 273.53 128.71 274.26 126.04 275.91 122.73 277.23 120.92 278.57 119.08 275.77 117.11 266.79 115.68 264.16 115.78 262.85 118.22 261.46 123.09 259.92 126.76 260.53 129.9"/><polygon class="cls-1" points="172.06 161.49 175.42 157.94 181.4 154.16 180.44 151.74 179.22 149.5 178.16 147.33 176.35 140.13 172.26 142.01 167.97 147.37 164.7 149.23 165.89 152.6 167.46 156.85 169.84 159.5 172.06 161.49"/><polygon class="cls-1" points="196.87 131.1 197.15 128.76 190.53 130.89 186.32 133.29 182.31 135.52 181.85 136.88 183.34 143.42 184.1 146.56 185.19 148.31 186.4 150.48 192.46 145.98 196.7 144.4 198.68 143.46 199.54 143.27 197.89 139.94 198.04 134.23 196.87 131.1"/><polygon class="cls-1" points="205.22 140.36 207.41 140.19 211.95 137.6 214.68 135.89 217.37 135.87 216.43 133.65 215.93 130.93 215.97 127.23 216.38 125.03 216.79 122.79 213.41 122.23 204.7 124.83 202.37 126.06 202.25 128.83 203.11 133.82 203.31 137.8 205.22 140.36"/><polygon class="cls-1" points="139.23 207.21 140.71 202.55 144.46 196.56 142.54 194.79 140.47 193.3 138.58 191.81 133.83 186.11 130.96 189.58 129.41 196.26 127.28 199.35 129.81 201.88 133.07 205.03 136.37 206.38 139.23 207.21"/><polygon class="cls-1" points="148.39 169.07 147.63 166.84 142.59 171.63 139.84 175.62 137.19 179.37 137.37 180.79 141.55 186.03 143.6 188.54 145.34 189.64 147.36 191.07 150.87 184.38 154.01 181.12 155.38 179.41 156.08 178.87 153.15 176.59 150.8 171.38 148.39 169.07"/><polygon class="cls-1" points="159.94 173.79 161.84 172.68 164.8 168.38 166.52 165.65 168.93 164.47 167.12 162.88 165.49 160.65 163.93 157.29 163.33 155.13 162.73 152.94 159.44 153.9 152.73 160.02 151.16 162.14 152.25 164.69 155.2 168.81 157.11 172.31 159.94 173.79"/><polygon class="cls-1" points="129.48 262.65 128.8 257.81 129.58 250.78 127.08 250.02 124.56 249.58 122.22 249.05 115.46 245.98 114.38 250.35 115.89 257.05 115.31 260.76 118.68 261.93 122.99 263.36 126.54 263.14 129.48 262.65"/><polygon class="cls-1" points="121.19 224.31 119.53 222.63 117.07 229.13 116.33 233.92 115.57 238.45 116.34 239.65 122.39 242.56 125.32 243.93 127.36 244.17 129.81 244.58 130.07 237.03 131.48 232.73 131.98 230.59 132.37 229.81 128.74 229.02 124.36 225.34 121.19 224.31"/><polygon class="cls-1" points="133.64 223.55 134.87 221.73 135.68 216.57 136.04 213.36 137.7 211.25 135.38 210.6 132.94 209.3 130.08 206.96 128.6 205.27 127.11 203.55 124.56 205.84 121.17 214.28 120.68 216.87 122.77 218.69 127.21 221.13 130.44 223.44 133.64 223.55"/><polygon class="cls-1" points="144.76 316.83 142.04 312.76 139.69 306.09 137.11 306.49 134.65 307.18 132.31 307.73 124.89 307.89 125.81 312.3 130.07 317.68 131.16 321.27 134.71 320.86 139.21 320.28 142.32 318.55 144.76 316.83"/><polygon class="cls-1" points="120.65 285.88 118.43 285.08 119.03 292.01 120.44 296.65 121.72 301.06 122.94 301.8 129.64 301.81 132.88 301.77 134.82 301.09 137.21 300.4 134.17 293.49 133.57 289.01 133.09 286.86 133.11 285.98 129.49 286.85 123.96 285.43 120.65 285.88"/><polygon class="cls-1" points="131.53 279.8 131.85 277.62 130.34 272.62 129.28 269.58 129.85 266.95 127.49 267.38 124.72 267.26 121.13 266.39 119.07 265.51 116.98 264.61 115.68 267.78 116.28 276.85 116.96 279.4 119.63 280.13 124.69 280.4 128.61 281.08 131.53 279.8"/><polygon class="cls-1" points="182.02 359.01 177.81 356.53 172.8 351.54 170.65 353.02 168.74 354.71 166.86 356.21 160.24 359.58 162.99 363.15 169.16 366.15 171.7 368.92 174.72 367 178.52 364.53 180.58 361.62 182.02 359.01"/><polygon class="cls-1" points="146.88 341.59 144.53 341.84 148.07 347.82 151.35 351.38 154.42 354.8 155.85 354.94 161.89 352.03 164.79 350.59 166.25 349.14 168.09 347.49 162.36 342.58 159.88 338.8 158.51 337.07 158.15 336.27 155.27 338.63 149.66 339.75 146.88 341.59"/><polygon class="cls-1" points="154.04 331.38 153.39 329.29 149.86 325.44 147.57 323.16 146.96 320.54 145.01 321.95 142.47 323.05 138.85 323.82 136.61 323.92 134.34 324.02 134.54 327.44 139.02 335.35 140.74 337.35 143.47 336.85 148.14 334.9 151.97 333.81 154.04 331.38"/><polygon class="cls-1" points="233.9 380.85 229.03 380.44 222.35 378.12 221.06 380.38 220.06 382.73 219.03 384.91 214.53 390.81 218.55 392.84 225.41 392.86 228.9 394.25 230.79 391.22 233.14 387.34 233.73 383.82 233.9 380.85"/><polygon class="cls-1" points="194.68 380.4 192.67 381.64 198.46 385.49 202.96 387.28 207.21 389.03 208.56 388.54 212.74 383.3 214.72 380.74 215.41 378.8 216.35 376.51 209.06 374.57 205.18 372.25 203.21 371.28 202.52 370.72 200.95 374.09 196.39 377.54 194.68 380.4"/><polygon class="cls-1" points="196.71 368.1 195.21 366.49 190.36 364.56 187.31 363.49 185.62 361.4 184.47 363.52 182.66 365.61 179.74 367.88 177.76 368.94 175.76 370.01 177.42 373 184.89 378.19 187.31 379.24 189.55 377.61 192.91 373.83 195.89 371.19 196.71 368.1"/><polygon class="cls-1" points="290.12 378.01 285.55 379.76 278.52 380.56 278.34 383.17 278.47 385.72 278.48 388.13 276.98 395.39 281.49 395.48 287.68 392.52 291.43 392.26 291.82 388.7 292.25 384.19 291.25 380.77 290.12 378.01"/><polygon class="cls-1" points="254.59 394.63 253.31 396.62 260.2 397.58 265.03 397.23 269.62 396.97 270.62 395.94 272.11 389.4 272.79 386.24 272.57 384.19 272.43 381.72 265.01 383.14 260.51 382.72 258.31 382.71 257.45 382.5 257.5 386.22 254.88 391.31 254.59 394.63"/><polygon class="cls-1" points="251.07 382.66 249.03 381.87 243.82 382.23 240.61 382.59 238.18 381.44 238.07 383.85 237.34 386.52 235.69 389.83 234.37 391.64 233.03 393.48 235.83 395.45 244.81 396.88 247.44 396.79 248.75 394.34 250.14 389.47 251.68 385.8 251.07 382.66"/><polygon class="cls-1" points="339.54 351.07 336.18 354.62 330.2 358.4 331.16 360.82 332.38 363.06 333.44 365.23 335.25 372.43 339.34 370.55 343.63 365.19 346.9 363.33 345.71 359.96 344.14 355.71 341.75 353.06 339.54 351.07"/><polygon class="cls-1" points="314.73 381.46 314.45 383.8 321.07 381.67 325.28 379.27 329.29 377.04 329.75 375.68 328.26 369.14 327.5 366 326.41 364.25 325.21 362.08 319.14 366.58 314.9 368.16 312.92 369.1 312.06 369.29 313.71 372.62 313.56 378.33 314.73 381.46"/><polygon class="cls-1" points="306.38 372.2 304.19 372.37 299.65 374.96 296.92 376.68 294.23 376.69 295.17 378.91 295.68 381.63 295.63 385.33 295.23 387.53 294.81 389.77 298.19 390.33 306.9 387.73 309.23 386.5 309.35 383.73 308.49 378.74 308.29 374.76 306.38 372.2"/><polygon class="cls-1" points="372.37 305.35 370.89 310.01 367.14 316 369.06 317.77 371.13 319.26 373.02 320.75 377.77 326.45 380.64 322.99 382.19 316.3 384.32 313.21 381.79 310.69 378.53 307.53 375.23 306.18 372.37 305.35"/><polygon class="cls-1" points="363.21 343.49 363.97 345.73 369.01 340.94 371.76 336.94 374.41 333.19 374.23 331.77 370.05 326.53 368 324.02 366.26 322.92 364.24 321.49 360.73 328.18 357.59 331.44 356.22 333.15 355.52 333.69 358.45 335.97 360.8 341.18 363.21 343.49"/><polygon class="cls-1" points="351.66 338.77 349.76 339.88 346.8 344.18 345.08 346.91 342.67 348.1 344.48 349.68 346.11 351.91 347.67 355.27 348.27 357.43 348.87 359.63 352.16 358.67 358.87 352.54 360.44 350.42 359.35 347.87 356.4 343.75 354.49 340.25 351.66 338.77"/><polygon class="cls-1" points="382.12 249.91 382.8 254.75 382.02 261.78 384.52 262.54 387.04 262.98 389.39 263.51 396.14 266.58 397.22 262.21 395.71 255.51 396.3 251.8 392.92 250.63 388.61 249.21 385.06 249.42 382.12 249.91"/><polygon class="cls-1" points="390.41 288.25 392.07 289.93 394.53 283.43 395.27 278.64 396.04 274.11 395.26 272.91 389.21 270 386.28 268.63 384.24 268.39 381.8 267.99 381.53 275.53 380.12 279.83 379.62 281.97 379.23 282.75 382.86 283.54 387.24 287.22 390.41 288.25"/><polygon class="cls-1" points="377.96 289.01 376.73 290.83 375.93 295.99 375.56 299.2 373.9 301.31 376.22 301.95 378.66 303.26 381.52 305.6 383 307.29 384.49 309.01 387.04 306.72 390.43 298.28 390.92 295.69 388.83 293.87 384.39 291.44 381.15 289.12 377.96 289.01"/><polygon class="cls-1" points="366.84 195.74 369.56 199.8 371.91 206.47 374.49 206.07 376.95 205.38 379.29 204.83 386.71 204.67 385.79 200.26 381.53 194.88 380.44 191.29 376.89 191.7 372.39 192.28 369.28 194.02 366.84 195.74"/><polygon class="cls-1" points="390.95 226.68 393.18 227.48 392.57 220.55 391.17 215.91 389.88 211.5 388.66 210.76 381.96 210.76 378.72 210.79 376.78 211.47 374.4 212.16 377.43 219.07 378.03 223.56 378.51 225.7 378.49 226.58 382.11 225.71 387.64 227.13 390.95 226.68"/><polygon class="cls-1" points="380.07 232.76 379.75 234.94 381.26 239.94 382.33 242.99 381.75 245.61 384.11 245.18 386.88 245.3 390.47 246.17 392.53 247.05 394.63 247.95 395.93 244.78 395.32 235.71 394.64 233.16 391.97 232.43 386.91 232.16 382.99 231.47 380.07 232.76"/><polygon class="cls-1" points="329.58 153.55 333.79 156.03 338.8 161.03 340.95 159.54 342.87 157.85 344.74 156.35 351.36 152.98 348.61 149.41 342.44 146.41 339.9 143.65 336.88 145.56 333.08 148.03 331.02 150.94 329.58 153.55"/><polygon class="cls-1" points="364.72 170.97 367.07 170.72 363.52 164.74 360.25 161.18 357.18 157.76 355.75 157.62 349.71 160.53 346.81 161.97 345.35 163.42 343.51 165.07 349.24 169.98 351.72 173.76 353.08 175.49 353.45 176.29 356.33 173.94 361.94 172.81 364.72 170.97"/><polygon class="cls-1" points="357.56 181.18 358.21 183.27 361.74 187.12 364.03 189.4 364.64 192.02 366.59 190.61 369.13 189.51 372.75 188.74 374.99 188.64 377.26 188.54 377.06 185.12 372.58 177.21 370.86 175.21 368.13 175.71 363.46 177.66 359.63 178.75 357.56 181.18"/><polygon class="cls-1" points="277.7 131.71 282.57 132.12 289.25 134.45 290.54 132.18 291.54 129.83 292.57 127.65 297.07 121.75 293.05 119.72 286.19 119.7 282.7 118.31 280.81 121.34 278.46 125.22 277.87 128.74 277.7 131.71"/><polygon class="cls-1" points="316.92 132.16 318.93 130.92 313.14 127.07 308.64 125.28 304.39 123.53 303.05 124.02 298.87 129.26 296.88 131.82 296.19 133.76 295.25 136.05 302.55 137.99 306.42 140.32 308.4 141.28 309.08 141.84 310.65 138.47 315.21 135.02 316.92 132.16"/><polygon class="cls-1" points="314.89 144.46 316.4 146.07 321.24 148 324.29 149.07 325.98 151.16 327.13 149.04 328.94 146.95 331.86 144.68 333.84 143.62 335.84 142.55 334.18 139.56 326.71 134.37 324.29 133.32 322.05 134.95 318.69 138.73 315.71 141.38 314.89 144.46"/><path class="cls-1" d="M333.93,259.14c.07-3.91.36-17.46-2-26.22-4.7-17.45-26.09-44.53-50.55-52.53-24.73-8.08-48.41-7.66-73.33,10.28-31.34,22.55-30.71,50.12-31.84,54.56,4.08-1,10.64-.47,12.88.59,4.35,2.06,10.93,8.64,10.93,8.64l-7.63,4.07a13,13,0,0,0-6.06-2.8c-2.09-.41-6.09.64-9.92,2.4-.29,8.61.58,16.18,3.16,22.76s8.31,14.76,10,17.1Zm-60.83-2.87a19.52,19.52,0,0,0-4.59-2.76c-2.65-1.15-3.9-.55-6.82-.27-3.43.32-6.12,2.1-9.21,3.45-3.77,1.64-7.25,3.69-11,5.33l-6.55-5.52-3.62,7.15-12.32,2c-3.72.59-8.14,1.39-11.67,3.11a15.46,15.46,0,0,0-7.75,9.09l-5.64-1.15c1.43-5.66,6.85-10.43,7.31-10.79,3.31-2.58,6.66-4.13,15.07-6.05l10.33-2.35,2.64-7.84,5.41-2.24,5.59,5.46c3.09-.92,6.36-1.38,9.27-2.76,4.9-2.32,9.27-4.6,14.78-3.58,6.64,1.24,7.34,1.76,13.06,6.37C277.37,252.88,273.11,256.28,273.1,256.27Z"/><path class="cls-1" d="M235.29,321.79l0,0-9.65,2.85-7.56,2s2.41,1.64,4.07,2.59,6.2.8,6.2.8l8.28-2.12v-.27l79.7-20.91,3.75-4.52c.63-1.73,1.63-3.95,1.63-3.95Z"/><path class="cls-1" d="M332.51,282.09,203.24,316.82a17.54,17.54,0,0,1-2.06-2.13c-1.35-1.58-2.45-3.13-2.45-3.13l5.25-1.05,128.33-33.32.55.9Z"/><path class="cls-1" d="M276.9,332.33a39.71,39.71,0,0,0,4.94-2.14l2.71-1.94,2.82-2.42L260.82,333s2.73,1.47,3.44,1.72,9-1.73,9-1.73S275.83,332.62,276.9,332.33Z"/><path class="cls-1" d="M185.19,252.79a16.68,16.68,0,0,1,7.13,2.71l3.12-1.63s-4.36-4.14-8.31-5.3S170.05,252,170.05,252l-4.29-3.6-3.92.74-1.37,6.07s-13.69,1.68-16.47,4.11-3.72,10.79-3.72,10.79l2.63-.23s.75-5.65,2.89-7.4,18.47-3.71,18.47-3.71l1.91-3.51,4.06,3.33S181.52,252.51,185.19,252.79Z"/><path class="cls-1" d="M66.76,162.58c-.44-.12-6.28,5.58-6.77,6.18-5.26,6.49-7.41,15.35-3.06,22.91,4.79,8.33,15.82,10.41,23.75,4.93,3.59-2.49,6.45-7.91,11.16-8.88,3.29-.68,5.67,1.48,6.06,4.68.49,4-2,6.53-4.6,9.07-2.33,2.22-4.63,4.46-6.94,6.7l9.73,4.91c.34.16,4.51-4,5-4.46a30.36,30.36,0,0,0,9.34-19.71c.55-6.54-5.83-10.22-10.92-12.83A14.16,14.16,0,0,0,95.33,175c-6.89-1.05-8.4,1.13-13.51,5.17-2.33,1.84-4.52,3.91-7.17,5.28A8,8,0,0,1,68,186c-3.93-1.77-3.35-7.23-2-9.78.85-1.56,6-6.07,9.91-8.73Z"/><path class="cls-1" d="M71.05,144l9.38-9.47c.24-.24,12.79,10.44,13.77,11.24,4.09,3.36,8.14,7.37,13.14,9.35,4.25,1.68,14.84,1.48,11.63-5.93-2.91-6.73-11.34-12.54-16.93-16.87-.84-.66-13-9.71-12.84-10l6-10c5,3.34,13.21,8.66,16.31,10.75,14.61,9.81,27.7,22.32,15.32,40-6.13,8.72-19.7,7.18-27.29,1.66Z"/><polygon class="cls-1" points="142.09 141.04 107.16 95.98 115.37 88.62 143.6 101.63 129.6 80.2 139.64 72.94 173.21 117.47 161.55 126.48 132.6 109.76 151.51 133.75 142.09 141.04"/><path class="cls-1" d="M208.27,89.87,213,97.24a1,1,0,0,1,.23.68,1,1,0,0,1-.35.54c-4.27,4.18-9,8-14.64,10.09-9,3.38-19.85.87-25.74-7-4.43-5.94-9-12.26-9.82-19.63-.91-8.46,2-14.2,7.66-20.54,4.56-5.1,13-7.91,19.39-9.38q2.23,4.78,4.45,9.58c-6.92.45-21.86,6.34-21.07,15.27.37,4.27,3.28,9.29,5.41,12.91C184.57,100,201.2,98.33,208.27,89.87Z"/><path class="cls-1" d="M289.64,42.91,301,45.77l4,57.48-11.57-1.56-.94-17.15-10.84-2.12-8.61,15.19L260.55,93.3Zm-4.48,28.2,6.72,3.53.25-16.33Z"/><path class="cls-1" d="M220.65,49.24a23.71,23.71,0,0,1,7.91-5.32,24.7,24.7,0,0,1,20.21.79c15.6,7.87,17.41,29.27,8.45,42.81a24.7,24.7,0,0,1-14.63,10.76c-18.07,4.31-31.48-13.65-30.13-30.25C213,61.23,215.82,54.14,220.65,49.24Zm17.2,37.42a8.79,8.79,0,0,0,7.53-2c3.18-2.9,4.16-7.8,4-11.93a22.79,22.79,0,0,0-8-16.11c-2.5-2-6-3-8.94-1.67-2.62,1.2-4.14,3.95-5.32,6.57-1.6,3.56-2.95,7.35-2.9,11.25.07,5.25,3,9.22,7.46,11.67A19.51,19.51,0,0,0,237.85,86.66Z"/><path class="cls-1" d="M359.48,71.16,355.06,81a41.42,41.42,0,0,0-8.72-7.66c-3.12-1.65-6.31-2.94-9.72-.7A4.59,4.59,0,0,0,335,77.42c1,4.56,5.38,7.85,8.13,11.34,6.4,8.15,5.43,19.77-3.66,25.57-6.09,3.88-12.28.36-17.91-2.78-1.3-.72-12.39-7.71-11.84-8.9,0,0,4.14-8.58,4.19-8.67a67,67,0,0,0,7.37,6c3.17,2.29,4.21,3.15,8.12,3.73a10.57,10.57,0,0,0,3.44-.33c2.63-.61,3.2-2.93,2.73-5.31a9.87,9.87,0,0,0-1.93-3.82c-2.12-2.83-4.79-5.19-7.11-7.86-5.37-6.15-6.37-13.28-1.55-20.17,3.9-5.59,8.92-9.35,16.05-7.83a24.24,24.24,0,0,1,10.18,5.15C352,64.26,359.68,70.73,359.48,71.16Z"/><polygon class="cls-1" points="371.61 75.64 364.73 84.86 375.36 92.2 349.17 128.7 359.77 134.99 386.74 99.71 396.12 106.78 403.75 97.74 371.61 75.64"/><path class="cls-1" d="M47.09,265.89l39.59-5.28c.11,0,2.4,12.56,2.53,13.58,1.08,8.71-3.57,18.83-12.47,21.3-13.36,3.7-20.45-.76-25.56-12.87C50.67,281.42,44.8,266.2,47.09,265.89Zm12,17.2c2.23,3.45,6.74,5.05,10.79,4.38,9.84-1.65,9.81-8.81,10.12-16.73l-23.38,3.88C56.32,274.66,58.73,282.57,59.06,283.09Z"/><polygon class="cls-1" points="93.5 295.14 61.22 304.35 55.56 309.32 62.34 332.32 70.61 330.71 64.99 314.03 73.83 311.01 78.27 325.85 87.33 324.29 82.33 308.13 87.92 305.72 94.19 322.12 102.28 320.97 93.5 295.14"/><polygon class="cls-1" points="100.07 321.82 105.4 329.88 86.46 350.56 112.2 344.7 116.84 352.36 75.01 359.85 71.47 351.9 100.07 321.82"/><polygon class="cls-1" points="117.92 352.33 92 374.53 87.22 378.36 105.35 400.76 110.88 395.66 99.89 379.79 106.44 375.19 117.91 387.51 122.69 382.16 113.49 370.58 119.52 364.47 130.5 378.31 135.54 374.73 117.92 352.33"/><polygon class="cls-1" points="137.93 375.4 144.46 381.77 125.78 405.92 138.93 417.88 134.24 423.79 117.59 409.99 115.92 403.36 137.93 375.4"/><path class="cls-1" d="M151.87,403.3c4.77-3.49,9.33-6.54,15.41-4.17,9.31,3.63,18.18,8.11,18.28,19.56.05,5.22-1.28,13-5.36,16.57a18.41,18.41,0,0,1-5.63,3c-8.09,3.18-18.35,3.86-25.1-3a8.35,8.35,0,0,1-1.39-2.07c-2.36-4.34-4.68-8.92-4.89-13.85C142.88,412,146.73,407.06,151.87,403.3Zm4.31,6.6a11.9,11.9,0,0,0-4,5.19c-3.1,7.82,3,18.5,11.68,17.41,5.51-.68,10.75-4.49,12.26-9.84,2.21-7.82-3.72-12.46-10.28-14.53A10.74,10.74,0,0,0,156.18,409.9Z"/><path class="cls-1" d="M210.9,420.43c3.72,2.51,6.34,7.33,6.2,9-.89,10.73-13.09,12.22-22,9.73L190.54,454l-8.5-3.53s10.11-36.82,10.19-36.8C199.47,415.48,203.57,415.48,210.9,420.43Zm-11.83,2.68-1.64,8.08c4.73,2.08,10.48,3,11.83-.3S206.17,424.52,199.07,423.11Z"/><polygon class="cls-1" points="223.93 422.26 217.61 462.73 223.65 463.5 245.39 465.69 246 456.76 228.57 454.5 229.48 446.31 246.48 449.61 247.77 441.09 232.2 437.89 232.21 432.5 250.32 435.16 252.76 425.64 223.93 422.26"/><path class="cls-1" d="M279.17,425.11c5,1.85,6.41,5.06,6.67,10.72,0,1-.89,9.07-7.95,10.89l11.45,15.19-10.23,1.8-9.59-14.18-3.9.55L267.37,465l-9.47-.47s-2.8-40.87-2.8-40.9c7.56-.26,14.87-.5,16.21-.4A38.1,38.1,0,0,1,279.17,425.11Zm-15,6.74,1.3,9.21c.41,2.89,11.14-1.68,10.65-5.26C275.52,431.61,264.18,432.32,264.13,431.85Z"/><path class="cls-1" d="M316.25,414.69l3.12,7.62c-7.6.95-19.29-.22-18.28,6.33s18.54,1.49,24.52,10.42c3.93,5.9,1.15,11.42-3.86,13.61-1.87.82-14.57,4.81-21.84,4.3,0,0-1.76-7-1.85-7.35.07.27,8.25.49,9,.38,3.92-.58,11.75-3.09,10.32-6.57-1.83-4.47-14.5-4.4-15.38-4.58-2.36-.46-4.8-1-6.71-2.42-3.15-2.39-4.09-7-2.91-10.75C295.43,416,308,416.19,316.25,414.69Z"/><path class="cls-1" d="M360.45,391.07s4.09,7.58,4.09,7.59c-.44-1.41-13.33,5.17-14.57,6.62-3.8,4.48-4.56,13.86-.11,18.19,2.7,2.64,8,3.54,11.38,2.88.73-.14,7.47-3.37,6.95-4.42l-2.93-5.79L356.69,420l-3.62-6.19,17.26-8.27,9.28,16.18c.57,1.2-7.7,7.46-8.64,8.19a20.55,20.55,0,0,1-17.68,3.6c-6.77-1.8-15.17-8.36-16.38-15.6-1-6.27,2.75-15.83,7.32-20.07C345.41,396.79,359.71,389.71,360.45,391.07Z"/><path class="cls-1" d="M361.39,387.8l8.75-6.12,8.51,8.92c2.94,3.08,5.62,6.57,9.24,8.9,3.89,2.51,9.27.75,9.87-4.16s-3.2-9.27-6.2-12.68c-.91-1-12.11-12.05-12.22-12l6.7-6.51,11.12,11.88c4.44,4.73,11.18,9.83,11,17.05C408,399.85,403,406,397.23,409.05c-5.13,2.71-12.6.39-16.67-3.48-2.52-2.4-5.1-4.72-7.64-7.08Z"/><polygon class="cls-1" points="387.52 360.93 419.63 383.5 425.14 375.52 393.91 353.06 387.52 360.93"/><polygon class="cls-1" points="394.82 350.83 401.1 342.63 427.09 357.39 437.01 342.57 443.3 346.07 431.53 365.16 425.41 367.58 394.82 350.83"/><path class="cls-1" d="M419.18,303.32c5.6-5.16,14.1-6.06,21.55-2.76,10.69,4.72,15.21,16.53,11.87,27.51-.34,1.12-5.39,12.63-5.19,12.71l-38.23-15.71c-1.08-.46,5.15-14.34,5.71-15.64A17.69,17.69,0,0,1,419.18,303.32Zm1.45,16.33,21.23,8.89c1.23.47,3-8.45,2.94-9.4-.5-6.25-7.18-10.34-13-10.08C424.71,309.39,423.1,314.18,420.63,319.65Z"/><polygon class="cls-1" points="423.43 266.6 462.65 265.19 462.22 255.51 423.76 256.46 423.43 266.6"/><polygon class="cls-1" points="420.09 220.28 460.71 215.13 462.27 222.9 443.92 235.61 462.28 234.77 463.11 243.63 423.32 248.15 422 237.64 442.91 225.84 421.17 228.78 420.09 220.28"/><path class="cls-1" d="M439.79,179.2l5.74-3a.76.76,0,0,1,.52-.13.8.8,0,0,1,.37.29,31.93,31.93,0,0,1,6.46,11.45c1.89,6.86-.67,14.67-6.85,18.48-4.66,2.88-9.62,5.84-15.1,5.94-6.29.11-10.33-2.39-14.62-7-3.45-3.7-5-10.12-5.62-14.9l7.34-2.65c-.12,5.13,3.23,16.52,9.86,16.53,3.16,0,7.05-1.8,9.85-3.13C445.68,197.32,445.55,185,439.79,179.2Z"/><path class="cls-1" d="M257,143.44a10,10,0,0,1,3.5-2.08,10.58,10.58,0,0,1,8.62.83c6.47,3.73,6.73,12.92,2.58,18.48a10.56,10.56,0,0,1-6.51,4.25c-7.82,1.4-13.12-6.59-12.14-13.65A13.2,13.2,0,0,1,257,143.44Zm5.79,16.23a4,4,0,0,0,3.23-1.09c1.43-1.16,2.65-2.64,2.68-4.41,0-2.54.09-5.24-1.82-6.95a3.81,3.81,0,0,0-3.78-.93c-1.14.45-3.09,1.46-3.66,2.55a11.55,11.55,0,0,0-1.5,4.74,5.63,5.63,0,0,0,2.9,5.16A5,5,0,0,0,262.76,159.67Z"/><path class="cls-1" d="M171.07,212a9.89,9.89,0,0,1,.29,4,10.31,10.31,0,0,1-4.48,7.14c-6.07,4-14.18.23-17.22-5.81a10.25,10.25,0,0,1-.85-7.52c2.18-7.42,11.45-8.55,17.16-4.62A12.81,12.81,0,0,1,171.07,212ZM154,210.42a3.63,3.63,0,0,0-.84,3.13,6.44,6.44,0,0,0,3.48,3.91,9.48,9.48,0,0,0,7.49.43,3.72,3.72,0,0,0,2.46-2.88,5.08,5.08,0,0,0-1.28-3.29,11.23,11.23,0,0,0-3.46-3.37,5.49,5.49,0,0,0-5.76.28A7.77,7.77,0,0,0,154,210.42Z"/><path class="cls-1" d="M346.87,292.91c1.87-1.37,3.66-2.56,6.05-1.63,3.65,1.42,7.13,3.18,7.17,7.67,0,2.05-.5,5.1-2.11,6.51a7.41,7.41,0,0,1-2.2,1.18c-3.18,1.25-7.2,1.52-9.86-1.18a3.18,3.18,0,0,1-.54-.81,12.8,12.8,0,0,1-1.92-5.44C343.34,296.32,344.85,294.39,346.87,292.91Zm1.69,2.59a4.69,4.69,0,0,0-1.57,2c-1.21,3.07,1.16,7.26,4.59,6.84a5.72,5.72,0,0,0,4.81-3.87c.87-3.07-1.46-4.89-4-5.7A4.25,4.25,0,0,0,348.56,295.5Z"/><path class="cls-1" d="M192.66,159.8c2.57-1.86,5-3.48,8.28-2.19,5,2,9.73,4.4,9.76,10.54,0,2.8-.72,7-2.92,8.88a10.23,10.23,0,0,1-3,1.6c-4.35,1.69-9.86,2-13.47-1.67a5.06,5.06,0,0,1-.74-1.12c-1.25-2.33-2.48-4.79-2.58-7.44C187.81,164.44,189.89,161.81,192.66,159.8Zm2.29,3.56a6.36,6.36,0,0,0-2.15,2.77c-1.68,4.19,1.54,9.94,6.23,9.38a7.82,7.82,0,0,0,6.6-5.25c1.21-4.19-2-6.7-5.48-7.83A5.74,5.74,0,0,0,195,163.36Z"/><path class="cls-1" d="M257.14,353l.11,3.73c-3.37-.81-8.14-3.18-8.75-.25s7.61,3.6,8.71,8.34a3.94,3.94,0,0,1-3.81,5.14c-.92.05-6.94-.29-9.93-1.67l.39-3.41a28.73,28.73,0,0,0,3.75,1.6c1.75.39,5.47.57,5.42-1.13-.06-2.18-5.44-4.18-5.78-4.4a7.22,7.22,0,0,1-2.46-2.09,4.52,4.52,0,0,1,.49-5C248.13,350.17,253.41,352.27,257.14,353Z"/><path class="cls-1" d="M168.82,298.28l-3,1.66a13.41,13.41,0,0,0-.76-3.61c-.49-1-1.06-1.95-2.35-2a1.45,1.45,0,0,0-1.32.93c-.61,1.35-.12,3-.08,4.44a5.45,5.45,0,0,1-5.79,5.82c-2.29-.16-3.2-2.24-4-4.11-.2-.43-1.7-4.32-1.34-4.52l2.72-1.41a22,22,0,0,0,.73,2.94,4.66,4.66,0,0,0,1.37,2.49,3.33,3.33,0,0,0,.94.57c.78.35,1.37-.14,1.7-.83a3.09,3.09,0,0,0,.24-1.34c0-1.13-.24-2.24-.33-3.36a4.86,4.86,0,0,1,3.44-5.44c2.06-.69,4-.69,5.58,1.05a7.56,7.56,0,0,1,1.62,3.25A24.72,24.72,0,0,1,168.82,298.28Z"/><path class="cls-1" d="M189.85,327c.94,1.92.89,4.54.44,5.2-2.92,4.24-8.33,2-11.45-1.19l-5.4,5.09-2.69-3.48s12.92-12.87,12.95-12.85C186.28,322.26,188,323.23,189.85,327Zm-5.54-1.69-2.6,3c1.47,2,3.63,3.74,5,2.68S186.91,327.6,184.31,325.34Z"/><path class="cls-1" d="M240.53,353.12c1.76,1.34,1.92,2.78,1.33,5.06-.1.41-1.45,3.49-4.47,3.34l2.69,7.42-4.28-.53-2.07-6.79-1.62-.26L231,367.5l-3.69-1.34s3.86-16.55,3.87-16.56c3,.82,6,1.62,6.47,1.82A15.47,15.47,0,0,1,240.53,353.12Zm-6.79.84-.6,3.81c-.19,1.19,4.62.68,4.86-.79C238.29,355.25,233.71,354.15,233.74,354Z"/><path class="cls-1" d="M316,333.33l1.79,3.31c-.2-.61-5.82,2.26-6.36,2.89-1.66,2-2,6.05-.05,7.94a6.23,6.23,0,0,0,5,1.25c.32-.06,3.26-1.47,3-1.93l-1.28-2.52L314.37,346l-1.58-2.7,7.53-3.6,4.05,7c.25.53-3.36,3.26-3.77,3.58a9,9,0,0,1-7.71,1.57c-2.95-.78-6.62-3.65-7.15-6.81-.45-2.73,1.2-6.9,3.2-8.75C309.45,335.83,315.69,332.74,316,333.33Z"/><path class="cls-1" d="M351.9,246.28l-.59-3.77L368,234.06l1,3.66-5,2.44.74,3.51,5.63.66.29,4.28Zm9-2.22.21-2.46-4.91,2Z"/><path class="cls-1" d="M369.12,267.45,352,265.76c-.05,0,.2-5.71.25-6.17.39-3.9,3.32-7.85,7.3-8,6-.26,8.51,2.39,9.49,8.19C369.11,260.32,370.11,267.54,369.12,267.45Zm-3.37-8.7a4.71,4.71,0,0,0-4.11-3c-4.29-.27-5,2.85-5.86,6.27l10.19.67A26.56,26.56,0,0,0,365.75,258.75Z"/><path class="cls-1" d="M273.62,351.62l4.44-1.21c.4,1.67.82,4.17,1.23,5.84a22.56,22.56,0,0,0,1.48,5.16,2.61,2.61,0,0,0,4.44.56c1.25-1.65.79-4,.41-5.89-.11-.57-1.86-6.9-1.92-6.89l3.79-.95,1.54,6.63c.61,2.64,2,5.9.41,8.47a8.3,8.3,0,0,1-7.29,3.48c-2.43-.09-4.64-2.5-5.31-4.75-.41-1.39-.85-2.78-1.28-4.17Z"/><polygon class="cls-1" points="230.56 166.1 235.71 164.63 230.21 143.61 225.12 144.92 230.56 166.1"/><polygon class="cls-1" points="351.5 268.74 351.29 272.45 367.75 274.91 368.3 270.91 351.5 268.74"/><path class="cls-1" d="M366.32,281.84l.78-3.64L359,280.12c-.25-2.59-1.4-4.6-4.26-4.66-.72,0-3.5.68-4.54,2.64-2.07,3.87-2,5.95-2.7,9.67,0,0,16.19,4,16.19,4l1.43-4.42-6.55-1.81a22.47,22.47,0,0,0,.37-2.3Zm-11.26,2.73-3.55-.57c.52-3.63,1.61-5.6,3.08-5S355.9,282.11,355.06,284.57Z"/><path class="cls-1" d="M305.92,358.29l3-3-6.38-5c1.24-1.71,1.66-3.7.31-5.61-.4-.57-2.63-1.36-4.62-1.1-3.93.5-5.37,1.67-8.4,3.15,0,0,6.39,14.64,6.39,14.64l3.95-1.3-2.44-6a14.39,14.39,0,0,0,2.49-1.47Zm-9.5-7.39-1.61-3c2.88-1.56,5.27-1.85,5.69-.41S298.65,350.21,296.42,350.9Z"/><path class="cls-1" d="M269.78,360c1.51-1.08,2.72-2.65,2.26-4.85-1.06-5-8.51-2.56-8.51-2.56l-4.21.87S261,370.24,261,370.24c3.49-.21,5.38.11,9.17-1.47,1.92-.8,3.52-2.69,3.6-3.42C274.06,362.54,272.22,360.84,269.78,360Zm-4.84,6.68-.1-3.64c2.36-.53,5.09-.49,5.44,1.06S268.33,366.62,264.94,366.68Zm-.71-7.76-.64-3.45s4.25-1.34,4.89,1S264.23,358.92,264.23,358.92Z"/><polygon class="cls-1" points="325.71 323.19 333.13 314.43 335.51 316.16 330.9 322.43 333.32 324.98 337.89 319.91 339.88 321.84 335.79 326.69 340.66 331.22 339.09 333.2 338.07 333.47 325.71 323.19"/><polygon class="cls-1" points="333.88 313.5 335.84 310.59 346.6 317.29 347.75 316.5 350.95 311.48 353.54 313.23 348.47 321.54 347.11 321.9 333.88 313.5"/><polygon class="cls-1" points="167.31 302.8 169.91 301.15 177.16 312.46 174.4 314.25 171.49 310.17 160.17 317.03 158.41 314.07 169.49 307.37 167.31 302.8"/><polygon class="cls-1" points="162.79 321.1 164.46 323.41 165.98 323.39 167.54 322.11 166.07 319.83 164.97 319.65 162.79 321.1"/><polygon class="cls-1" points="201.77 340.47 203.5 338 194.69 331.88 193.07 332.22 184.03 344 192.79 350.33 194.83 348.35 188.98 343.62 191.06 340.91 197.61 345.21 199.56 342.88 193.21 338.12 194.99 335.81 201.77 340.47"/><polygon class="cls-1" points="226.94 352.11 228.01 348.96 216.47 345.1 211.14 360.75 222.66 364.9 223.7 362.04 215.65 359.06 216.88 355.54 222.72 356.96 223.64 354.71 217.91 352.61 219.16 349.05 226.94 352.11"/><polygon class="cls-1" points="215.37 344.54 204.07 338.7 202.93 341.21 206.82 343.29 200.76 355.14 203.99 356.85 210.07 345.03 214.07 347.17 215.37 344.54"/><polygon class="cls-1" points="450.34 293.52 451.94 296.34 457.7 297.2 458.76 293.54 462.66 296.82 464.29 295.3 460.46 289.11 453.71 288.16 450.34 293.52"/><polygon class="cls-1" points="430.89 158.87 430.62 162.04 431.8 163.28 432.48 166.34 434.3 166.28 439.38 163.64 438.67 161.01 436.82 157.27 434.49 156.49 430.89 158.87"/><polygon class="cls-1" points="396.1 130.92 400.35 128.84 405.51 131.79 405.6 134.44 408.65 138.5 406.5 144.26 399.75 146.67 395.04 145.13 392.91 142.74 393.11 136.71 392.57 135.42 396.1 130.92"/><polygon class="cls-1" points="71.43 222.71 76.62 224.59 77.57 233.83 72.95 238.56 68.49 238.47 67.63 239 62.88 235.04 61.95 232.14 60.28 231.1 62.7 225.85 71.43 222.71"/><polygon class="cls-1" points="327.14 341.93 331.02 341.73 330.45 348.49 328.67 348.12 327.14 341.93"/><path class="cls-1" d="M329.25,176a12.42,12.42,0,0,1-11.69,8.35c-2.8,0-6.82-1.6-8.44-4a10,10,0,0,1-1.21-3.2c-1.12-4.53-.76-10,3.36-13.15a4.78,4.78,0,0,1,1.2-.59c2.48-1,4-1.15,7.72-1.63C327.14,161.4,331.5,170.48,329.25,176Zm-4.95-6.66a6.45,6.45,0,0,0-2.48-2.49c-3.95-2.2-10.05.27-10.09,5a7.83,7.83,0,0,0,4.38,7.22c4,1.72,6.89-1.1,8.45-4.45A5.73,5.73,0,0,0,324.3,169.35Z"/><polygon class="cls-1" points="286.75 167.32 291.7 169.39 300.53 149.53 295.73 147.38 286.75 167.32"/><polygon class="cls-1" points="181.98 198.33 185.53 194.32 169.57 179.56 165.99 183.41 181.98 198.33"/></svg>