<?xml version="1.0" encoding="utf-8"?>
<!-- Generator: Adobe Illustrator 19.2.0, SVG Export Plug-In . SVG Version: 6.00 Build 0)  -->
<svg version="1.1" id="Layer_1" xmlns="http://www.w3.org/2000/svg" xmlns:xlink="http://www.w3.org/1999/xlink" x="0px" y="0px"
	 viewBox="0 0 640 480" style="enable-background:new 0 0 640 480;" xml:space="preserve">
<style type="text/css">
	.st0{fill:#4F5151;}
</style>
<path class="st0" d="M311.9,167.1l2.3,10.2l-4.1,4.1v4.1l-3.5,3.5v1.2l-2,2v3.6l-6.3,15.4l-2.6,14.8c-5.9,7.6-11.7,15.1-17.1,23v3.3
	l-1.3,11.8l-2.6,5.6l-2.6,2.6c0,0,0,4.6,0,4.6c-1.2,3.1-3,5.7-3.3,9.1c-0.1,1-0.6,5.9,0,6.5l4.9,4.9c0,0,2.8-2.8,2.8-2.8
	c6.3-6.3,2.2-16.7,4.3-24.1l1.3-4.4l5.6-3.1l3.3-7.4l3.3-3.3l4.9-8.7l1.8-5.4l5.1-2.6l3.1-6.9l4.9-2.6l2.2,2.2l-2.3,2.3l-3.5,13.4
	v5.9l1.3,1.3c-2.7,7.4-5.2,14.8-7.7,22.3l-8.7,3.3v10l-5.4,5.4v8.2c0,0,1.9,1.9,1.9,1.9c0.7,0.7,6.8-4.6,7.3-5.3
	c2.3-3,2.9-6.9,3.7-10.5c0.3-1.3,0.6-5.7,1.6-6.6l18.9-16.1v-7.2c2.5-5.1,5-10.1,7.7-15.1l2.7-2.7v-2.7h3.2l-2.6-5.1v-3.8l1.8-9.2
	l7-7l1.4-10.1l2.3-15.1l4.6,12.8l4.4,4.4l5.1,9v9l5.9,2.6l4.6-4.6v-3.8l-4.4-3.3l-5.4-9.5l3.1-3.1l-4.7-4.7V187l-1.9-1.9l1.2-5.6
	l-5.5-5.5l2.7-8.6l2.3-8.7v-2.6l-12.3-6.9v-2.8l-4.4-4.4l1.7-1.7l2.7-5.8c-1.2-3.9-2.8-11.4-7.4-12.7c-7.4-2.1-12.6,9.9-11.8,15.5
	c0.1,1,1.8,3.3,1.8,3.6c0,0,0,3.3,0,3.3v1.3h-4.3l-3.3,3.3l-8.2,5.4c0,0-3.8,0-3.8,0c-0.8,0-3.3,3.3-4,3.9
	c-3.5,3.2-7.5,5.3-11.6,7.6v4.4l-9.2,9.2l-3.7,3.7l-0.4,5.5l-3.5,3.5c0,0-4.4,4.4-4.5,4.5c-3.1,3.1-2.5,4.4-1.3,8.5v2.3h3.3l1.7-1.7
	l3.5-1.9v-4.4v-4.1l5.8-5.8l4.1-4.1l8.6-7l4.4-3.8l3.2-3.2L311.9,167.1z"/>
</svg>
