<?xml version="1.0" encoding="utf-8"?>
<!-- Generator: Adobe Illustrator 19.2.0, SVG Export Plug-In . SVG Version: 6.00 Build 0)  -->
<svg version="1.1" xmlns="http://www.w3.org/2000/svg" xmlns:xlink="http://www.w3.org/1999/xlink" x="0px" y="0px"
	 viewBox="0 0 512 512" style="enable-background:new 0 0 512 512;" xml:space="preserve">
<style type="text/css">
	.st0{fill:#5A9191;}
	.st1{fill:#81D0D3;}
	.st2{fill:#76BDBC;}
	.st3{fill:#D6562B;}
	.st4{fill-opacity:0.3;}
	.st5{fill:#895881;}
	.st6{fill:#C6A9B5;}
	.st7{fill:#FFF200;}
	.st8{fill:#F9A01B;}
	.st9{fill:#FFFFFF;}
	.st10{fill:#B2D235;}
	.st11{fill:#F7F2DA;}
	.st12{fill:#DF8B26;}
	.st13{fill:#E4D41D;}
	.st14{fill:#A4BF3A;}
</style>
<g id="Core">
</g>
<g id="Layer_2">
	<polygon class="st0" points="115,61.9 123.9,53.8 387.8,55.8 442,324.9 451.7,374 458.4,392.5 253,466.6 48.3,392.5 49.5,373.7 
		55.3,371.6 64.2,321.8 	"/>
	<polygon class="st1" points="121.8,68.2 132.1,60.7 381.5,62.1 433.9,322 72.6,321.3 	"/>
	<polygon class="st2" points="382.5,68.2 381.5,62.1 132.1,60.7 121.8,68.2 72.6,321.3 77.6,321.3 125.5,70.8 133.4,64.8 	"/>
	<path class="st3" d="M219.6,321.8l127.6,0.3c0,0,4.2-13.9,4.5-23.1s-7.6-28.7-7.6-28.7l-110-8.7c0,0-12.3,11-15.2,19.1
		c-2.9,8.1-4.7,17-3.9,24.1C215.6,311.8,219.6,321.8,219.6,321.8z"/>
	<polygon class="st4" points="106.6,106.7 76.3,259.5 147.2,261.6 148.2,259.1 150.3,261.6 437.5,282.5 402.4,129.3 	"/>
	<polygon class="st5" points="30.7,89.2 109.8,89.2 106.1,109.1 362.7,128.9 365.6,133.4 369,129.3 415.8,133.2 418.4,156.2 
		482.8,155.2 487.5,161 456.6,224.4 490.2,290.9 436.2,295.6 432.5,279.4 151.7,257.9 148,252.6 145.4,257.4 67.4,253.7 77.8,224.9 
		28.6,223.3 63.2,152.6 43.5,114.3 46.7,111.4 41.4,110.1 	"/>
	<polygon class="st6" points="54.3,122.2 93,120.6 89.4,166.2 76.8,218.6 37,219.1 70,155.7 	"/>
	<polygon class="st6" points="104,151 81,246.4 143.3,251.6 149.1,247.4 152.8,252.1 435.2,272 422.4,225.8 415.1,178.8 	"/>
	<polygon class="st6" points="462.4,189.8 466.1,195 449.8,224.9 480.2,286.2 443,289.1 442,279.4 447.2,275.7 430.3,225.8 
		424.8,189.2 	"/>
	<polygon class="st7" points="57.4,378.6 56.7,389.7 156.6,424.7 349.4,423.3 450.7,390.4 446.5,377.9 	"/>
	<polygon class="st8" points="69.7,328.4 63.4,371.6 443.7,370.2 432.5,329 	"/>
	<path class="st4" d="M207.2,276.6l3.4,0.3l2.8,3.9c0,0,11.9-0.8,14.9,1c3,1.8,5.7,6.2,5.7,6.2l-3.1,0.1c0,0-1.2-3-4.2-4.1
		s-14.5,2.2-14.5,2.2l-2.6-3.7l-2.4,2.5c0,0-14-2-16.1-1s-4,5.5-4,5.5l-2.2-0.4c0,0,2.6-6.7,5.5-8.1c2.8-1.4,14.5,0.3,14.5,0.3
		L207.2,276.6z"/>
	<path class="st4" d="M262.9,292.1l5-0.7l3.4,5.8c2.8-0.1,5.5-0.1,8.3-0.2c4.6-0.1,9.7-0.5,14.3,1.1c5.8,1.9,8.2,6.7,9.9,12.1
		c0,0-4.1-0.5-4.1-0.5c-1.1-1.5-3.3-4.4-4-4.9c-1.9-1.5-4.4-2.1-6.8-2.5c-2.9-0.5-5.5,0.4-8.4,0.8c-3.5,0.5-6.8,1.4-10.3,2l-4.2-6
		l-4.6,5.1c-3.5-0.4-7.1-0.8-10.6-1.1c-3.2-0.3-7.1-1.2-10.4-0.6c-3.9,0.7-7.3,3.7-8.4,6.3c0,0-3.8-0.2-3.9-0.2
		c2.4-4.4,7.1-8.4,7.5-8.6c3.3-1.4,6.8-2.6,14.2-2.4c3,0.1,6.1,0.2,9.1,0.4L262.9,292.1z"/>
	<path class="st9" d="M207.2,274.5l3.4,0.3l2.8,3.9c0,0,11.9-0.8,14.9,1c3,1.8,5.7,6.2,5.7,6.2l-3.1,0.1c0,0-1.2-3-4.2-4.1
		c-3-1-14.5,2.2-14.5,2.2l-2.6-3.7l-2.4,2.5c0,0-14-2-16.1-1s-4,5.5-4,5.5l-2.2-0.4c0,0,2.6-6.7,5.5-8.1c2.8-1.4,14.5,0.3,14.5,0.3
		L207.2,274.5z"/>
	<path class="st9" d="M262.9,290l5-0.7l3.4,5.8c2.8-0.1,5.5-0.1,8.3-0.2c4.6-0.1,9.7-0.5,14.3,1.1c5.8,1.9,8.2,6.7,9.9,12.1
		c0,0-4.1-0.5-4.1-0.5c-1.1-1.5-3.3-4.4-4-4.9c-1.9-1.5-4.4-2.1-6.8-2.5c-2.9-0.5-5.5,0.4-8.4,0.8c-3.5,0.5-6.8,1.4-10.3,2l-4.2-6
		l-4.6,5.1c-3.5-0.4-7.1-0.8-10.6-1.1c-3.2-0.3-7.1-1.2-10.4-0.6c-3.9,0.7-7.3,3.7-8.4,6.3c0,0-3.8-0.2-3.9-0.2
		c2.4-4.4,7.1-8.4,7.5-8.6c3.3-1.4,6.8-2.6,14.2-2.4c3,0.1,6.1,0.2,9.1,0.4L262.9,290z"/>
	<g>
		<polygon class="st6" points="165.6,127.4 163.8,145.8 168.2,147.9 171.1,126.9 		"/>
		<path class="st6" d="M122.2,123.5c0.9-0.3,2-0.5,3.2-0.4c1,0.1,1.9,0.4,2.6,1c0.5,0.4,0.9,1,1.2,1.6c2.4,4.6,1.4,10.8-2.3,14.4
			c-0.9,0.9-1.9,1.6-3.2,1.7c-2.3,0.3-4.3-1.6-5.4-3.7C115.9,133.4,116.9,125.4,122.2,123.5z M121.7,127.9c-1.2,1.6-1.2,5.2-1.1,6.6
			c0.1,1.1,0.4,2.2,1.2,2.9c0.9,0.7,2.2,0.6,3.1,0c0.9-0.6,1.5-1.6,1.8-2.7c0.5-1.8,0.3-3.7-0.5-5.4c-0.4-0.8-1-1.6-1.9-2
			C123.1,126.7,122.2,127.1,121.7,127.9z"/>
		<path class="st6" d="M210.8,136.6c0.5-0.4,1.1-0.6,1.8-0.6c0.9,0,1.9,0.4,2.5,1.1c0.8,0.9,0.9,2.2,0.9,3.4
			c-0.2,2.2-1.1,4.4-2.9,5.6c-0.8,0.5-1.9,0.8-2.6,0.2c-0.3-0.2-0.4-0.6-0.5-0.9C209,143.2,208.5,138.3,210.8,136.6z M207.9,133.9
			c-2.1,2.5-2.9,6.4-2.5,9.7c0.2,1.9,0.9,3.9,2.4,5.1c2.6,2.2,6.8,1.3,9-1.1c2.3-2.5,2.9-6,2.8-9.4c-0.1-1.5-0.3-3.1-1.2-4.4
			c-1.2-1.8-3.5-2.7-5.6-2.5C210.7,131.4,209.1,132.4,207.9,133.9z"/>
		<polygon class="st6" points="259.4,135 264.1,136.1 262.3,153.4 258.3,153.4 		"/>
		<path class="st6" d="M305.3,144.4c0.7-0.6,1.6-0.8,2.6-0.1c1.1,0.7,1.5,2.1,1.6,3.4c0.2,1.3,0.1,2.6-0.4,3.7s-1.8,2-3,1.9
			c-1.6-0.2-2.7-1.8-2.7-3.4C303.2,148.5,303.9,145.6,305.3,144.4z M299.8,145.3c-0.8,2.5-0.9,5.2-0.3,7c1,3.1,4.2,5.6,7.4,5.3
			c3-0.3,5.5-2.8,6.3-5.8c0.8-2.9,0.1-6.1-1.3-8.8c-1-2-2.7-3.9-4.9-4.2C303.5,138.5,301,141.7,299.8,145.3z"/>
		<polygon class="st6" points="346.9,143.1 351.3,143.4 350.3,161.7 345.3,161.5 		"/>
		<path class="st6" d="M384.7,148c1.2-1,2.7-1.5,4.5-1.2c2.8,0.4,4.5,3.2,5.3,5.9c0.7,2.3,1,4.8,0.3,7.1c-0.6,2.3-2.3,4.4-4.5,5.2
			c-3.2,1.2-7.1-0.8-8.6-3.9C379.9,157.6,381.1,150.8,384.7,148z M384.9,157.4c0.2,1.4,0.9,3.1,2.2,3.8c4.7,2.3,5.1-5.5,3.8-8
			c-0.3-0.6-0.7-1.2-1.4-1.4C386.9,150.6,384.6,154.6,384.9,157.4z"/>
	</g>
	<polygon class="st10" points="176.4,428.7 176.7,434.9 253.7,460.3 339.4,429.3 	"/>
	<g>
		<path class="st5" d="M139.2,170.2c0-0.4-6-3.1-6.6-3.3c-6.4-2.1-13.7-1.2-18.2,4.3c-4.9,6-3.3,14.9,3.1,19.3
			c2.9,2,7.8,2.6,9.9,5.9c1.5,2.3,0.5,4.7-1.8,5.9c-2.9,1.5-5.5,0.4-8.2-0.9c-2.3-1.1-4.7-2.2-7-3.3c0,0-0.9,8.8-0.9,8.8
			c0,0.3,4.3,2.3,4.8,2.5c5.4,2.7,11.8,3,17.6,1.4c5.1-1.5,6-7.3,6.6-11.9c0.1-1.2-0.1-2.3-0.4-3.5c-1.2-5.5-3.3-6-7.8-8.7
			c-2.1-1.2-4.2-2.3-6-3.9c-1.3-1.2-2.5-3-2.4-4.9c0.2-3.5,4.5-4.6,6.8-4.3c1.4,0.2,6.3,2.8,9.4,5
			C138.1,178.5,139.1,170.5,139.2,170.2z"/>
		<path class="st5" d="M147,167.2c0,0,9.8,2.5,10.4,2.6c0.3,0.1-2,13.2-2.1,14.2c-0.6,4.2-1.8,8.7-1.1,13c0.6,3.6,5.1,10.9,8.9,5.6
			c3.5-4.8,4-13,4.7-18.7c0.1-0.9,1.4-13,1.6-13c0,0,9.4,0,9.4,0c-0.3,4.8-0.6,12.8-0.7,15.8c-0.8,14.2-4.1,28.4-21.4,27.1
			c-8.6-0.7-13.1-10.7-12.4-18.3C144.4,195.5,147,167.2,147,167.2z"/>
		<polygon class="st5" points="183,216.8 186.3,170.9 195.2,170.9 205.1,194 208.3,173.5 218.2,174.6 214.4,219.5 202.5,218.6 
			194.1,192.9 192.6,217.5 		"/>
		<path class="st5" d="M252.8,213.1c0,2.4,0,4.7,0.1,7.1c0,0.2,0,0.4-0.1,0.6c-0.1,0.1-0.3,0.2-0.5,0.2c-4.7,1-9.6,1.6-14.4,0.6
			c-7.6-1.6-13.9-8-14.6-15.9c-0.5-6-0.9-12.3,1.8-17.6c3-6.2,7.5-8.8,14.1-10.7c5.3-1.5,12.3,0.2,17.3,2c-0.4,2.8-0.7,5.6-1.1,8.5
			c-4.9-2.7-17.7-5.1-21,1.3c-1.6,3.1-1.8,7.8-1.9,11.1C232.3,209.8,244.3,215.9,252.8,213.1z"/>
		<path class="st5" d="M316.7,183.5l9.4,1l9.4,45.6h-9.4l-2.6-13.6l-8.9-0.5l-5.2,13.1l-10.5-2.1L316.7,183.5z M316.2,206.5l5.8,2.1
			l-1.6-13.1L316.2,206.5z"/>
		<path class="st5" d="M266.7,184.9c1.9-1.6,4.2-2.9,6.8-3.7c5.4-1.6,11.4-0.8,16.2,2.2c11.9,7.5,11.7,24.9,3.5,35.1
			c-3.2,3.9-7.5,6.8-12.6,7.5c-14.9,2.1-24.3-13.4-21.9-26.6C259.6,194,262.4,188.5,266.7,184.9z M277.6,216.3
			c2.1,0.5,4.3,0.4,6.2-1c2.8-2.1,3.9-6,4.1-9.3c0.3-4.8-1.7-10.2-5.2-13.6c-1.9-1.8-4.6-2.9-7.1-2c-2.2,0.8-3.6,2.8-4.8,4.9
			c-1.6,2.7-2.9,5.7-3.2,8.8c-0.4,4.2,1.7,7.6,5.1,10C274.2,215,275.9,215.9,277.6,216.3z"/>
		<path class="st5" d="M369.3,189.6c0,0-0.4,8.6-0.4,8.7c-2.5-1.5-7.4-3-8.8-3.2c-2.8-0.3-5.6-0.3-7.5,2.4c-0.8,1.2-0.6,2.9,0.2,4.1
			c2.1,3.1,6.4,4.3,9.5,6.1c7.2,4.2,9.9,13.2,4.8,20.3c-3.4,4.7-9.1,3.9-14.3,3.2c-1.2-0.2-11.6-2.1-11.5-3.2c0,0,0.6-7.7,0.6-7.8
			c2.4,1,6,2,7.3,2.4c3.1,0.8,4.1,1.1,7.2,0.4c0.8-0.2,1.8-0.8,2.5-1.3c1.8-1.2,1.5-3.2,0.5-4.8c-0.6-1-1.6-1.7-2.6-2.3
			c-2.4-1.5-5.1-2.5-7.7-3.8c-5.9-3-8.7-8.1-7.1-14.7c1.3-5.4,3.9-9.7,9.7-10.6c3-0.5,6.3-0.1,9.2,0.9
			C361.7,186.7,369.4,189.3,369.3,189.6z"/>
		<polygon class="st5" points="378.6,190.3 378.3,199.6 388.7,199.6 388,235.9 397.9,235.2 399.7,199.4 409.2,199.8 410.1,190.3 		
			"/>
		<path class="st5" d="M103,240.4c0,0,2-18.9,2.1-19.4c0-0.1,6.2,0.3,6.7,0.4c4.2,0.5,8.5,3.9,8.6,8.4c0.2,6.8-2.7,9.6-9.1,10.6
			C110.8,240.5,102.9,241.5,103,240.4z M112.5,236.7c1.9-0.7,3.2-2.6,3.3-4.6c0.4-4.9-3-5.7-6.8-6.7c0,0-0.9,11.5-0.9,11.5
			C108.2,237.1,112.2,236.8,112.5,236.7z"/>
		<polygon class="st5" points="126.7,222.4 124.6,238.7 125.8,242.2 137.4,243.6 138.3,239.5 129.7,238.8 130.1,234.3 137.6,235.2 
			138.6,230.8 130.4,229.9 130.4,227 139,227.3 140,223.5 		"/>
		<polygon class="st5" points="143.7,224.2 148.4,224.2 151.7,237.5 156.2,225.4 160.6,225.6 152.4,244.6 148.2,243.9 		"/>
		<polygon class="st5" points="163.4,225.8 162,242.3 161.7,245.3 175.6,246.9 175.8,243.2 166.6,241.5 167.3,237.6 175.5,238 
			175.3,234.5 168.1,233.6 168.1,229.4 176.7,230.5 177.2,227.5 		"/>
		<polygon class="st5" points="181,227.1 185.4,228 184.2,242.9 192.7,244.3 192.4,247.9 181.9,246.7 179.5,244.4 		"/>
		<path class="st5" d="M198.9,232.3c2.1-2,4.2-3.7,7.2-2.9c4.7,1.3,9.3,2.9,9.9,8.5c0.3,2.5,0.1,6.4-1.7,8.3
			c-0.7,0.8-1.6,1.3-2.6,1.8c-3.7,2-8.7,2.9-12.3-0.1c-0.3-0.3-0.6-0.6-0.8-0.9c-1.4-2-2.8-4.1-3.1-6.4
			C195,237,196.6,234.4,198.9,232.3z M201.4,235.2c-0.8,0.7-1.4,1.7-1.6,2.7c-1.1,4,2.4,8.8,6.6,7.8c2.6-0.6,5-2.8,5.4-5.4
			c0.6-3.9-2.5-5.8-5.8-6.5C204.2,233.5,202.6,234.1,201.4,235.2z"/>
		<path class="st5" d="M231.1,232.8c2,0.9,3.6,3,3.7,3.9c0.4,5.2-5.4,6.9-9.9,6.4l-1,7.5l-4.4-1c0,0,2.1-18.5,2.1-18.5
			C225.2,231.3,227.2,231,231.1,232.8z M225.6,235l-0.2,4c2.4,0.6,5.3,0.7,5.7-1S229.1,235.1,225.6,235z"/>
		<polygon class="st5" points="238.9,232.7 237.1,252.6 240.1,252.8 250.7,253.2 250.7,248.8 242.2,248.3 242.3,244.3 250.7,245.3 
			251.1,241.1 243.4,240.1 243.2,237.5 252.1,238.1 253,233.4 		"/>
		<path class="st5" d="M271,236.8c2.3,1.2,2.8,2.9,2.5,5.6c0,0.5-1,4.3-4.6,4.7c0,0,4.5,8.1,4.5,8.1l-5.1,0.2l-3.7-7.5h-1.9
			l-0.2,7.3l-4.5-0.9c0,0,1.4-19.9,1.4-20c3.7,0.4,7.2,0.8,7.9,0.9C268.4,235.6,270.2,236.3,271,236.8z M263.3,239c0,0,0,4.5,0,4.5
			c0,1.4,5.5-0.1,5.5-1.8C268.8,239.7,263.3,239.3,263.3,239z"/>
		<path class="st5" d="M293.5,237.6v4c-3.6-1-8.7-3.7-9.4-0.5s8.1,4.1,9.1,9.2c0.7,3.4-1.6,5.4-4.3,5.4c-1,0-7.5-0.5-10.7-2.1
			c0,0,0.5-3.5,0.5-3.7c0,0.1,3.6,1.7,4,1.8c1.9,0.5,5.9,0.8,5.9-1.1c0-2.4-5.7-4.7-6.1-4.9c-1-0.6-2-1.3-2.6-2.3
			c-1-1.7-0.6-3.9,0.7-5.4C283.9,234.3,289.5,236.8,293.5,237.6z"/>
		<path class="st5" d="M334.2,240.8c0,0-0.3,4.2-0.3,4.2c0.2-0.7-6.8-1.4-7.7-1.2c-2.7,0.8-5.6,4.4-4.9,7.4c0.4,1.8,2.3,3.6,3.9,4.2
			c0.3,0.1,4,0.6,4,0c0,0,0.3-3.1,0.3-3.1l-4.5-0.7l0.2-3.5l9.3,1.2c0,0-0.5,9.1-0.5,9.1c-0.1,0.6-5.1,1-5.7,1c-3,0.3-6.1-1-8.2-3.2
			c-2.3-2.5-4-7.5-2.5-10.7c1.2-2.8,5.3-5.7,8.3-6.2C326.5,239.1,334.3,240,334.2,240.8z"/>
		<path class="st5" d="M343.8,241.8l5.1,1.2c-0.2,2-0.3,4-0.5,6c-0.2,2.1-0.6,4.2-0.3,6.3c0.3,2.2,2.7,3.6,4.7,2.3
			c2-1.4,2.4-4.2,2.6-6.4c0.1-0.7,0.5-8.3,0.4-8.3l4.5,0.3c-0.3,2.6-0.5,5.3-0.8,7.9c-0.3,3.2,0,7.3-2.7,9.5
			c-2.5,2.1-6.4,2.3-9.3,1.1c-2.6-1-4.2-4.5-4.1-7.2c0.1-1.7,0.1-3.4,0.1-5.1C343.7,246.9,343.8,244.4,343.8,241.8z"/>
		<polygon class="st5" points="369.1,243.3 367.6,262.4 372.3,262.8 374,244.1 		"/>
		<polygon class="st5" points="382.8,243.6 387.7,244.8 386.1,259.3 394.6,260.9 394.3,264.3 383.5,262.8 381.2,260.5 		"/>
		<path class="st5" d="M414.6,247.1c3.2,1.9,4.9,5.7,4.4,9.6c-0.6,5.7-5.5,9.5-11.1,9.5c-0.6,0-6.7-0.7-6.7-0.6
			c0.6-6.7,1.2-13.4,1.7-20.1c0.1-0.6,7.4,0.3,8.1,0.4C412.4,246.2,413.6,246.6,414.6,247.1z M407.2,250.2c0,0-1,11.2-1,11.2
			c0,0.6,4.4,0.2,4.8,0c2.8-1.1,3.8-4.9,2.8-7.5C412.6,250.6,410.1,250.5,407.2,250.2z"/>
	</g>
	<g>
		<path class="st11" d="M137.1,168.1c0-0.4-6-3.1-6.6-3.3c-6.4-2.1-13.7-1.2-18.2,4.3c-4.9,6-3.3,14.9,3.1,19.3
			c2.9,2,7.8,2.6,9.9,5.9c1.5,2.3,0.5,4.7-1.8,5.9c-2.9,1.5-5.5,0.4-8.2-0.9c-2.3-1.1-4.7-2.2-7-3.3c0,0-0.9,8.8-0.9,8.8
			c0,0.3,4.3,2.3,4.8,2.5c5.4,2.7,11.8,3,17.6,1.4c5.1-1.5,6-7.3,6.6-11.9c0.1-1.2-0.1-2.3-0.4-3.5c-1.2-5.5-3.3-6-7.8-8.7
			c-2.1-1.2-4.2-2.3-6-3.9c-1.3-1.2-2.5-3-2.4-4.9c0.2-3.5,4.5-4.6,6.8-4.3c1.4,0.2,6.3,2.8,9.4,5C136,176.4,137,168.5,137.1,168.1z
			"/>
		<path class="st11" d="M144.9,165.1c0,0,9.8,2.5,10.4,2.6c0.3,0.1-2,13.2-2.1,14.2c-0.6,4.2-1.8,8.7-1.1,13
			c0.6,3.6,5.1,10.9,8.9,5.6c3.5-4.8,4-13,4.7-18.7c0.1-0.9,1.4-13,1.6-13l9.4,0c-0.3,4.8-0.6,12.8-0.7,15.8
			c-0.8,14.2-4.1,28.4-21.4,27.1c-8.6-0.7-13.1-10.7-12.4-18.3C142.3,193.4,144.9,165.1,144.9,165.1z"/>
		<polygon class="st11" points="180.9,214.7 184.2,168.8 193.1,168.8 203.1,191.9 206.2,171.4 216.2,172.5 212.3,217.4 200.4,216.5 
			192,190.8 190.5,215.4 		"/>
		<path class="st11" d="M250.7,211.1c0,2.4,0,4.7,0.1,7.1c0,0.2,0,0.4-0.1,0.6c-0.1,0.1-0.3,0.2-0.5,0.2c-4.7,1-9.6,1.6-14.4,0.6
			c-7.6-1.6-13.9-8-14.6-15.9c-0.5-6-0.9-12.3,1.8-17.6c3-6.2,7.5-8.8,14.1-10.7c5.3-1.5,12.3,0.2,17.3,2c-0.4,2.8-0.7,5.6-1.1,8.5
			c-4.9-2.7-17.7-5.1-21,1.3c-1.6,3.1-1.8,7.8-1.9,11.1C230.2,207.7,242.2,213.8,250.7,211.1z"/>
		<path class="st11" d="M314.6,181.4l9.4,1l9.4,45.6h-9.4l-2.6-13.6l-8.9-0.5l-5.2,13.1l-10.5-2.1L314.6,181.4z M314.1,204.4
			l5.8,2.1l-1.6-13.1L314.1,204.4z"/>
		<path class="st11" d="M264.6,182.8c1.9-1.6,4.2-2.9,6.8-3.7c5.4-1.6,11.4-0.8,16.2,2.2c11.9,7.5,11.7,24.9,3.5,35.1
			c-3.2,3.9-7.5,6.8-12.6,7.5c-14.9,2.1-24.3-13.4-21.9-26.6C257.5,191.9,260.3,186.4,264.6,182.8z M275.5,214.2
			c2.1,0.5,4.3,0.4,6.2-1c2.8-2.1,3.9-6,4.1-9.3c0.3-4.8-1.7-10.2-5.2-13.6c-1.9-1.8-4.6-2.9-7.1-2c-2.2,0.8-3.6,2.8-4.8,4.9
			c-1.6,2.7-2.9,5.7-3.2,8.8c-0.4,4.2,1.7,7.6,5.1,10C272.1,212.9,273.8,213.8,275.5,214.2z"/>
		<path class="st11" d="M367.2,187.5c0,0-0.4,8.6-0.4,8.7c-2.5-1.5-7.4-3-8.8-3.2c-2.8-0.3-5.6-0.3-7.5,2.4
			c-0.8,1.2-0.6,2.9,0.2,4.1c2.1,3.1,6.4,4.3,9.5,6.1c7.2,4.2,9.9,13.2,4.8,20.3c-3.4,4.7-9.1,3.9-14.3,3.2
			c-1.2-0.2-11.6-2.1-11.5-3.2c0,0,0.6-7.7,0.6-7.8c2.4,1,6,2,7.3,2.4c3.1,0.8,4.1,1.1,7.2,0.4c0.8-0.2,1.8-0.8,2.5-1.3
			c1.8-1.2,1.5-3.2,0.5-4.8c-0.6-1-1.6-1.7-2.6-2.3c-2.4-1.5-5.1-2.5-7.7-3.8c-5.9-3-8.7-8.1-7.1-14.7c1.3-5.4,3.9-9.7,9.7-10.6
			c3-0.5,6.3-0.1,9.2,0.9C359.6,184.6,367.3,187.2,367.2,187.5z"/>
		<polygon class="st11" points="376.5,188.2 376.2,197.5 386.6,197.5 385.9,233.8 395.8,233.1 397.6,197.3 407.1,197.7 408,188.2 		
			"/>
		<path class="st11" d="M100.9,238.3c0,0,2-18.9,2.1-19.4c0-0.1,6.2,0.3,6.7,0.4c4.2,0.5,8.5,3.9,8.6,8.4c0.2,6.8-2.7,9.6-9.1,10.6
			C108.7,238.4,100.8,239.4,100.9,238.3z M110.4,234.6c1.9-0.7,3.2-2.6,3.3-4.6c0.4-4.9-3-5.7-6.8-6.7c0,0-0.9,11.5-0.9,11.5
			C106.1,235,110.1,234.7,110.4,234.6z"/>
		<polygon class="st11" points="124.6,220.3 122.5,236.6 123.7,240.1 135.3,241.5 136.2,237.5 127.6,236.8 128,232.2 135.5,233.1 
			136.5,228.7 128.3,227.8 128.3,224.9 136.9,225.2 137.9,221.4 		"/>
		<polygon class="st11" points="141.6,222.1 146.3,222.1 149.6,235.4 154.2,223.3 158.5,223.5 150.3,242.5 146.1,241.8 		"/>
		<polygon class="st11" points="161.3,223.7 159.9,240.2 159.6,243.2 173.5,244.8 173.7,241.1 164.5,239.4 165.2,235.5 173.4,235.9 
			173.2,232.4 166,231.5 166,227.3 174.6,228.4 175.1,225.4 		"/>
		<polygon class="st11" points="179,225.1 183.3,225.9 182.1,240.8 190.7,242.2 190.3,245.8 179.8,244.6 177.4,242.3 		"/>
		<path class="st11" d="M196.8,230.2c2.1-2,4.2-3.7,7.2-2.9c4.7,1.3,9.3,2.9,9.9,8.5c0.3,2.5,0.1,6.4-1.7,8.3
			c-0.7,0.8-1.6,1.3-2.6,1.8c-3.7,2-8.7,2.9-12.3-0.1c-0.3-0.3-0.6-0.6-0.8-0.9c-1.4-2-2.8-4.1-3.1-6.4
			C192.9,234.9,194.5,232.3,196.8,230.2z M199.3,233.1c-0.8,0.7-1.4,1.7-1.6,2.7c-1.1,4,2.4,8.8,6.6,7.8c2.6-0.6,5-2.8,5.4-5.4
			c0.6-3.9-2.5-5.8-5.8-6.5C202.1,231.4,200.5,232,199.3,233.1z"/>
		<path class="st11" d="M229,230.7c2,0.9,3.6,3,3.7,3.9c0.4,5.2-5.4,6.9-9.9,6.4l-1,7.5l-4.4-1c0,0,2.1-18.5,2.1-18.5
			C223.1,229.2,225.1,228.9,229,230.7z M223.5,232.9l-0.2,4c2.4,0.6,5.3,0.7,5.7-1C229.4,234.2,227,233,223.5,232.9z"/>
		<polygon class="st11" points="236.8,230.6 235,250.5 238,250.7 248.6,251.1 248.6,246.7 240.1,246.2 240.3,242.2 248.6,243.2 
			249,239 241.3,238 241.1,235.4 250,236.1 250.9,231.3 		"/>
		<path class="st11" d="M268.9,234.7c2.3,1.2,2.8,2.9,2.5,5.6c0,0.5-1,4.3-4.6,4.7c0,0,4.5,8.1,4.5,8.1l-5.1,0.2l-3.7-7.5h-1.9
			l-0.2,7.3l-4.5-0.9c0,0,1.4-19.9,1.4-20c3.7,0.4,7.2,0.8,7.9,0.9C266.3,233.5,268.1,234.3,268.9,234.7z M261.2,236.9
			c0,0,0,4.5,0,4.5c0,1.4,5.5-0.1,5.5-1.8C266.7,237.6,261.2,237.2,261.2,236.9z"/>
		<path class="st11" d="M291.4,235.5v4c-3.6-1-8.7-3.7-9.4-0.5c-0.8,3.1,8.1,4.1,9.1,9.2c0.7,3.4-1.6,5.4-4.3,5.4
			c-1,0-7.5-0.5-10.7-2.1c0,0,0.5-3.5,0.5-3.7c0,0.1,3.6,1.7,4,1.8c1.9,0.5,5.9,0.8,5.9-1.1c0-2.4-5.7-4.7-6.1-4.9
			c-1-0.6-2-1.3-2.6-2.3c-1-1.7-0.6-3.9,0.7-5.4C281.8,232.2,287.4,234.7,291.4,235.5z"/>
		<path class="st11" d="M332.1,238.7c0,0-0.3,4.2-0.3,4.2c0.2-0.7-6.8-1.4-7.7-1.2c-2.7,0.8-5.6,4.4-4.9,7.4
			c0.4,1.8,2.3,3.6,3.9,4.2c0.3,0.1,4,0.6,4,0l0.3-3.1l-4.5-0.7l0.2-3.5l9.3,1.2c0,0-0.5,9.1-0.5,9.1c-0.1,0.6-5.1,1-5.7,1
			c-3,0.3-6.1-1-8.2-3.2c-2.3-2.5-4-7.5-2.5-10.7c1.2-2.8,5.3-5.7,8.3-6.2C324.4,237,332.2,237.9,332.1,238.7z"/>
		<path class="st11" d="M341.7,239.7l5.1,1.2c-0.2,2-0.3,4-0.5,6c-0.2,2.1-0.6,4.2-0.3,6.3c0.3,2.2,2.7,3.6,4.7,2.3
			c2-1.4,2.4-4.2,2.6-6.4c0.1-0.7,0.5-8.3,0.4-8.3c0,0,4.5,0.3,4.5,0.3c-0.3,2.6-0.5,5.3-0.8,7.9c-0.3,3.2,0,7.3-2.7,9.5
			c-2.5,2.1-6.4,2.3-9.3,1.1c-2.6-1-4.2-4.5-4.1-7.2c0.1-1.7,0.1-3.4,0.1-5.1C341.6,244.8,341.7,242.3,341.7,239.7z"/>
		<polygon class="st11" points="367,241.2 365.5,260.3 370.2,260.7 371.9,242 		"/>
		<polygon class="st11" points="380.7,241.5 385.6,242.7 384,257.2 392.5,258.8 392.2,262.3 381.4,260.7 379.1,258.4 		"/>
		<path class="st11" d="M412.5,245c3.2,1.9,4.9,5.7,4.4,9.6c-0.6,5.7-5.5,9.5-11.1,9.5c-0.6,0-6.7-0.7-6.7-0.6
			c0.6-6.7,1.2-13.4,1.7-20.1c0.1-0.6,7.4,0.3,8.1,0.4C410.3,244.1,411.5,244.5,412.5,245z M405.1,248.1c0,0-1,11.2-1,11.2
			c0,0.6,4.4,0.2,4.8,0c2.8-1.1,3.8-4.9,2.8-7.5C410.5,248.5,408,248.5,405.1,248.1z"/>
	</g>
	<polygon class="st12" points="74,333.9 434.3,335.6 432.5,329 69.7,328.4 63.4,371.6 68.9,371.6 	"/>
	<polygon class="st13" points="62,383.1 61.6,391.1 56.7,389.7 57.4,378.6 446.5,377.9 448.6,384.3 	"/>
	<polygon class="st14" points="181,432 181,436.2 176.7,434.9 176.4,428.7 339.4,429.3 331.1,432.5 	"/>
</g>
<g id="Layer_3">
</g>
</svg>
