<?xml version="1.0" encoding="UTF-8"?>
<!-- Generator: Adobe Illustrator 22.1.0, SVG Export Plug-In . SVG Version: 6.00 Build 0)  -->
<svg version="1.1" id="Layer_1" xmlns="http://www.w3.org/2000/svg" xmlns:xlink="http://www.w3.org/1999/xlink" x="0px" y="0px" viewBox="0 0 512 512" style="enable-background:new 0 0 512 512;" xml:space="preserve">
<style type="text/css">
	.st0{fill:#5A9191;}
	.st1{fill:#D6562B;}
	.st2{fill:#F9A01B;}
	.st3{fill:#FFF200;}
	.st4{fill:#B2D235;}
	.st5{fill:#100F0F;fill-opacity:0.3;}
	.st6{fill:#FFFFFF;}
</style>
<title>button</title>
<path class="st0" d="M485,174.3c-16.6-37.6-51-94.1-83.3-115.1c-67.5-44-138.8-61.8-227.9-28.3c-112,42.2-143,150.8-145.2,156.8  c-10.6,29.5-17.3,61.9-14.3,87.6c13.9,119,107.5,219.7,260.3,223.2c56.7,1.3,133.2-38.6,165-77.5C517.1,325.9,501.6,211.9,485,174.3  z"/>
<path class="st1" d="M454.6,161.5c-14.9-33.9-40.6-62.7-69.5-81.7C324.6,40,260.7,24,180.9,54.3C80.5,92.4,52.8,190.6,50.8,196.1  C41.4,222.7,35.4,252,38,275.2s15.4,55.9,15.4,55.9l410.4,0.7c0,0,10.1-46.6,10.9-76.7S469.5,195.5,454.6,161.5z"/>
<path class="st2" d="M462,339.7l-404.4-1.8c0,0,4.8,12.8,7.4,18.2c1.2,2.4,8.8,16,8.8,16l370.8,1.2c0,0,6.6-9.6,10.8-16.8  S462,339.7,462,339.7z"/>
<path class="st3" d="M442.6,379.6c0,0-11.4,15.1-16.2,21.7s-21.6,21.1-21.6,21.1l-292-3.6c0,0-12.8-10.2-20.8-19  c-8.3-9.2-15.8-22.2-15.8-22.2L442.6,379.6z"/>
<path class="st4" d="M397.2,430.4c0,0-61.6,49.6-136.1,46.6s-141.6-50.6-141.6-50.6L397.2,430.4z"/>
<path class="st5" d="M120,183l14.6,1.1l11.7,16.9c0,0,50.7-3.6,63.6,4.3s24.3,26.8,24.3,26.8l-13.4,0.6c0,0-5.3-13.1-18-17.6  s-62.1,9.6-62.1,9.6l-11.2-15.8l-10.1,10.7c0,0-59.6-8.6-68.8-4.5s-17.2,23.5-17.2,23.5l-9.5-1.6c0,0,11.3-28.8,23.4-34.8  s62.1,1.1,62.1,1.1L120,183z"/>
<path class="st6" d="M120,174l14.6,1.1l11.7,16.9c0,0,50.7-3.6,63.6,4.3s24.3,26.8,24.3,26.8l-13.4,0.6c0,0-5.3-13.1-18-17.6  s-62.1,9.6-62.1,9.6l-11.2-15.8l-10.1,10.7c0,0-59.6-8.7-68.8-4.5s-17.2,23.5-17.2,23.5l-9.5-1.6c0,0,11.3-28.8,23.4-34.8  s62.1,1.1,62.1,1.1L120,174z"/>
<path class="st5" d="M324.4,249.8l21.2-2.8l14.5,24.8l35.4-0.9c19.9-0.5,41.6-2,61,4.6c24.6,8.3,35,28.6,42.4,52.2  c0,0-17.3-2.2-17.3-2.2c-4.6-6.6-14-18.7-16.9-21c-8.3-6.6-18.7-8.9-29.2-10.7c-12.5-2.1-23.6,1.6-35.8,3.5  c-14.9,2.2-29.1,6.2-44,8.4l-17.9-25.9l-19.6,21.9l-45.4-4.9c-13.7-1.5-30.3-5.2-44.5-2.5c-16.5,3.2-31.3,15.8-35.8,27.3l-16.4-1  c10.4-18.8,30.1-35.9,32.1-36.8c14.2-6,29.1-11.4,60.6-10.1l38.8,1.5L324.4,249.8z"/>
<path class="st6" d="M324.4,240.8l21.2-2.8l14.5,24.8l35.4-0.9c19.9-0.5,41.6-2,61,4.6c24.6,8.3,35,28.6,42.4,52.2  c0,0-17.3-2.2-17.3-2.2c-4.6-6.6-14-18.7-16.9-21c-8.3-6.6-18.7-8.9-29.2-10.7c-12.5-2.1-23.6,1.6-35.8,3.5  c-14.9,2.2-29.1,6.2-44,8.4l-17.9-25.9l-19.6,22l-45.4-4.8c-13.7-1.5-30.3-5.2-44.5-2.5c-16.5,3.1-31.4,15.7-35.8,27.2l-16.4-1  c10.4-18.8,30.1-35.9,32.1-36.8c14.2-6,29.1-11.4,60.6-10.1l38.8,1.5L324.4,240.8z"/>
</svg>