<?xml version="1.0" encoding="UTF-8" standalone="no"?>
<!DOCTYPE svg PUBLIC "-//W3C//DTD SVG 1.1//EN" "http://www.w3.org/Graphics/SVG/1.1/DTD/svg11.dtd">
<svg width="100%" height="100%" viewBox="0 0 2880 1144" version="1.1" xmlns="http://www.w3.org/2000/svg" xmlns:xlink="http://www.w3.org/1999/xlink" xml:space="preserve" xmlns:serif="http://www.serif.com/" style="fill-rule:evenodd;clip-rule:evenodd;stroke-linejoin:round;stroke-miterlimit:2;">
    <path d="M1696.8,305C1704.3,305.2 1711,299.5 1713.9,292.6C1716.8,285.7 1716.3,277.8 1714.9,270.5C1713.5,263.2 1710.4,255.3 1703.8,251.5C1697.5,247.9 1692.5,249.4 1688.7,253.4C1681.3,261.2 1678.5,278.5 1679.3,286C1680.3,295.3 1687.4,304.7 1696.8,305Z" style="fill-rule:nonzero;"/>
    <path d="M2605.5,656.3L2759,269.5L2728.7,237.7L2430.4,262.8L2426.8,131L2047.3,136.5L2029.6,161.6L2010.2,136.4L492.1,134.8L499.3,42.9L39.3,51.4L111.8,169.9L143.2,175.3L126,193.2L258.6,409.8L86.9,841.4L377.3,828.6L352.6,1006.2L789.5,989.5L802.8,960.6L826.7,989.8L2372.8,998.9L2378.3,1095.8L2824.3,1064.3L2605.5,656.3ZM2219.3,226.9C2226.1,220.6 2234.7,216.9 2245.1,217.8C2261.5,219.1 2272.9,234.9 2278.8,250.3C2283.8,263.5 2286.5,278 2283.9,291.8C2281.3,305.6 2272.6,318.9 2259.7,324.6C2241.1,332.8 2217.7,323 2207.4,305.5C2195.5,285.5 2199.8,245.1 2219.3,226.9ZM1956.5,227.6L1982.8,227.2L1984.8,335.5L1955.4,336.2L1956.5,227.6ZM1657.1,261C1662.2,239.3 1675.4,219.4 1696.6,220C1709.9,220.4 1720.5,231.1 1727.5,242.4C1736.9,257.6 1742.4,276 1739,293.6C1735.6,311.2 1722,327.3 1704.4,330.3C1685.2,333.5 1665.7,320.3 1658.3,302.3C1653.9,291.8 1653.6,276 1657.1,261ZM1438.7,223L1435.6,325.5L1412.5,327.3L1410.5,219L1438.7,223ZM1121.8,235.1C1128.4,225.7 1138.5,219.3 1149.9,217.4C1162.4,215.2 1176.3,219.6 1184.1,229.7C1189.6,236.9 1191.7,246.1 1192.8,255C1195.2,274.6 1192.9,296 1180.7,311.5C1168.5,327 1144.1,333.9 1128.1,322.3C1118.9,315.6 1113.9,304.4 1111.7,293.3C1107.8,274.2 1110.4,250.9 1121.8,235.1ZM864.3,216.2L896.4,210.7L888.8,335.3L861.7,325L864.3,216.2ZM593.1,212.6C599,210 605.3,208.8 611.7,209C617.3,209 623.2,210.3 627.7,213.6C630.7,216 633.3,219 635.3,222.4C651.5,248.5 648.4,285.1 628.1,308.1C623.3,313.5 617.4,318.4 610.3,319.8C596.9,322.5 584.2,312.3 577.1,300.7C560.5,273.5 563,226 593.1,212.6ZM369.4,465.6L368.4,792.2L134.4,813.1L300.2,425.4L192.8,235.1L380.2,239.3L369.4,465.6ZM830.3,955.5L806.6,929.4L774.6,956.6L420.6,953.9L432,382.4L2391.8,393.2L2404.9,679.8L2439.2,955.3L830.3,955.5ZM2432,1008.9L2488,974.6L2451,676.2L2444.6,452.5L2623.9,450.2L2647.8,479.4L2565.6,662.3L2753.7,1023L2428.7,1058.8L2432,1008.9Z" style="fill-rule:nonzero;"/>
    <path d="M596.9,294.1C602.4,297.6 610,296.5 615.1,292.5C620.2,288.5 623.2,282.2 624.5,275.8C626.6,265.1 624.8,253.9 619.2,244.5C616.4,239.8 612.4,235.5 607.3,233.6C599.8,230.9 594.9,233.3 591.9,238.2C585.5,248.4 586.9,269.5 588.4,277.8C589.5,284.1 591.6,290.7 596.9,294.1Z" style="fill-rule:nonzero;"/>
    <path d="M1141.9,307C1146.3,310.5 1152.9,308.2 1157.3,304.7C1167.4,296.6 1172.2,283.2 1172.1,270.3C1172,263.2 1170.5,255.8 1165.5,250.7C1158.5,243.7 1147.3,243.3 1139.8,249.8C1127.5,261 1132.4,289.3 1138.4,302C1139.2,303.9 1140.4,305.6 1141.9,307Z" style="fill-rule:nonzero;"/>
    <path d="M2239.7,303.4C2268.1,314.8 2267.5,268.9 2258.5,254.4C2256.4,251 2253.6,247.8 2249.9,246.6C2233.8,241.4 2221.7,265.6 2225.1,282.2C2226.7,290.3 2231.6,300.1 2239.7,303.4Z" style="fill-rule:nonzero;"/>
    <path d="M700.6,468.2C700.2,466.1 663.8,452.4 660.3,451.5C621.6,442 579,450.6 555.2,484.7C529,522.2 542.3,574 582,597.1C600,607.6 629.2,608.9 642.9,627.3C652.5,640.1 648,654.8 635,662.9C618.9,673 602.9,667.7 586.6,661.4C572.3,655.9 558,650.5 543.7,645L542.2,696.9C542.2,698.7 568.6,708.2 571.6,709.4C604.6,722.9 642.3,722 675.5,709.8C704.8,699 707.8,664 708.7,636.8C708.9,629.9 706.9,623.2 704.9,616.6C695.5,584.7 683,582.6 655.2,568.8C642.6,562.5 629.2,557.2 617.9,548.6C609.5,542.1 602,531.9 601.9,520.9C601.6,500.4 626.3,491.8 640.1,492.6C648.5,493.1 678.3,506 697.8,517.7C697.8,517.5 700.5,470.3 700.6,468.2" style="fill-rule:nonzero;"/>
    <path d="M745.2,447.3C745.2,447.3 804.2,457.4 807.8,458C809.4,458.3 802.1,536.5 801.6,542.5C799.7,567.6 795.1,594.4 801.1,619.4C806.2,640.6 836,681.4 856.1,648.5C874.4,618.7 873.9,569.9 875.6,536.3C875.8,531.2 877.9,459 879.4,458.9L934.9,454.7C935.5,483.3 937.3,530 937.6,547.8C939.3,631.6 926.3,717 823.6,716.9C772.8,716.9 741.7,659.7 742.4,615C742.4,614.9 745.2,447.3 745.2,447.3" style="fill-rule:nonzero;"/>
    <path d="M979,723L978,451.3L1030.4,447.3L1099.3,578.5L1108.7,456.9L1167.7,458.6L1165.2,724.4L1094.9,724.6L1034.1,577.3L1035.9,722.9L979,723Z" style="fill-rule:nonzero;"/>
    <path d="M1388.2,670.1C1389.4,684 1390.5,697.9 1391.7,711.7C1391.9,712.9 1391.8,714.1 1391.2,715.1C1390.5,715.9 1389.5,716.4 1388.5,716.6C1361.2,724.7 1332.6,730.1 1304.3,726.4C1258.8,720.5 1218.8,685.7 1211.6,639.5C1206.2,604.6 1201,567.7 1214.1,534.9C1229.1,497.2 1254.1,479.5 1292.2,465.5C1322.8,454.2 1364.7,461.3 1394.8,469.3C1393.9,486 1393,502.8 1392.2,519.5C1362,505.9 1286,497.4 1269.3,536.8C1261.4,555.6 1262.4,583.2 1263.3,603.2C1265.8,659.8 1339.6,689.9 1388.2,670.1" style="fill-rule:nonzero;"/>
    <path d="M1758.3,602.9L1793.1,612.7L1778,536.3L1758.3,602.9ZM1751.1,467L1807,469L1882.8,732.9L1827.3,737.1L1805.8,658.1L1753.2,659L1728.2,738.4L1665.6,730.8L1751.1,467Z" style="fill-rule:nonzero;"/>
    <path d="M1535.5,677.7C1548.2,679.9 1561,678.1 1571.6,668.9C1587.1,655.4 1592.2,632.1 1591.8,612.4C1591.2,584.2 1577,553.1 1555,534.9C1543.3,525.2 1526.5,520.1 1512.5,526.1C1499.9,531.6 1492.4,544.5 1486.5,556.9C1478.5,573.7 1471.8,591.6 1471.6,610.2C1471.4,635.2 1484.8,654.4 1506,666.5C1514.9,671.6 1525.1,676 1535.5,677.7M1457.1,497.8C1468,487.1 1481,478.7 1495.3,473.2C1526.7,461.3 1561.7,463.4 1591.5,478.9C1665.1,517.9 1671.7,620 1627.7,683.7C1610.8,708.2 1586.4,727.2 1556.9,733.6C1470.4,752.4 1408.2,665.6 1416.3,586.6C1419.6,554.2 1433.6,520.7 1457.1,497.8" style="fill-rule:nonzero;"/>
    <path d="M2063.2,479.7C2063.2,479.7 2064.6,530.8 2064.6,530.9C2049,523.4 2019.8,516.5 2011.3,516.2C1994.5,515.6 1978.1,516.7 1968.2,533.4C1963.8,540.8 1966.1,550.6 1971.4,557.3C1985.2,574.8 2010.8,579.8 2029.9,589C2074.3,610.6 2094.3,662.4 2067.4,706.2C2049.4,735.5 2015.5,733.3 1984.8,731.6C1977.7,731.2 1915.6,724.3 1915.5,718.1C1915.5,718.1 1915.4,672.7 1915.4,672.2C1929.7,677.3 1951.7,681.4 1959.6,682.8C1977.9,686 1984.2,687.5 2002.2,681.9C2006.9,680.4 2012.4,676.4 2016.2,673.3C2026.2,665.2 2023.9,654.1 2016.9,644.9C2012.8,639.4 2006.8,635.7 2000.7,632.5C1985.7,624.8 1969.4,620.2 1953.8,613.6C1918,598.4 1898.9,569.9 1905.2,530.3C1910.3,498.2 1924,471.7 1957.7,463.3C1975.1,459 1994.7,459.9 2012.1,464.2C2016.9,465.6 2063.2,477.4 2063.2,479.7" style="fill-rule:nonzero;"/>
    <path d="M2118.1,479.7L2120.2,534.5L2181.6,529.9L2193.8,743.6L2251.9,735.2L2246.3,523.6L2302.2,521.7L2303.4,465.3L2118.1,479.7Z" style="fill-rule:nonzero;"/>
    <path d="M573.5,871.6C584.4,866.9 591,854.9 591,843C591,814.3 570.6,811 548.3,806.4L548.3,874.6C548.3,875.4 571.8,872.3 573.5,871.6M519,897.5C519,897.5 522.6,785.5 522.7,782.6C522.7,782.3 559.5,781.7 562.4,781.8C587.6,782.8 614.2,800.8 617,827.2C621.2,866.9 605.2,884.9 568.4,893.7C564.8,894.6 518.8,904.1 519,897.5" style="fill-rule:nonzero;"/>
    <path d="M650.7,781L645.6,877.5L653.8,897.5L722.7,900.5L726,876.5L675.3,876.2L675.3,849.3L719.9,851.1L724.1,824.9L675.4,823.4L674.1,805.9L724.6,804.1L729,781L650.7,781Z" style="fill-rule:nonzero;"/>
    <path d="M751.1,783.8L778.8,781.7L804.3,858.3L825.6,785.4L851.4,784.5L811.6,900.2L786.6,898L751.1,783.8Z" style="fill-rule:nonzero;"/>
    <path d="M867.9,784.2L867.1,882.4L866.4,900L949.3,903L948.7,881.3L893.5,875.2L895.9,852.3L944.3,850.7L941.7,830.2L899.2,828.3L897.3,803.6L948.1,805.9L949.9,788.2L867.9,784.2Z" style="fill-rule:nonzero;"/>
    <path d="M972.3,784.5L998.4,787.7L997.8,875.6L1048.8,880L1048.4,901.7L986.2,899.2L970.8,886.9L972.3,784.5Z" style="fill-rule:nonzero;"/>
    <path d="M1095.4,823.1C1091.1,827.8 1088.2,833.6 1086.9,839.9C1082.4,863.7 1105.2,890.6 1129.3,882.8C1144.5,877.9 1157.3,864.3 1158.7,848.4C1160.7,825.1 1141.5,815.2 1121.8,812.8C1111.6,811.6 1102,815.9 1095.4,823.1M1079.7,806.7C1091.3,794.2 1102.6,783.2 1121,786.6C1149.3,791.9 1176.8,799.7 1183.2,832C1186.2,846.7 1186.6,869.4 1177,881.8C1173.2,886.7 1167.9,890 1162.7,893.3C1141.5,906.7 1112.9,914.1 1090.1,898.4C1088.2,897 1086.5,895.2 1085.1,893.3C1076.1,882.3 1067.1,870.6 1063.8,856.8C1058.9,836.1 1067.2,820.1 1079.7,806.7" style="fill-rule:nonzero;"/>
    <path d="M1237.8,810.8L1238.6,834.5C1253.2,837.2 1270,836 1271.5,825.8C1273,815.6 1258.6,810.1 1237.8,810.8M1269.1,795.5C1281.2,800.1 1291.7,811.8 1292.4,816.5C1297.1,847.1 1263.9,859.4 1237.2,858.4L1234.4,903L1208.2,898.8C1208.2,898.8 1212,789 1212.3,789C1233.8,789.2 1245.3,786.5 1269.1,795.5" style="fill-rule:nonzero;"/>
    <path d="M1314.9,791.5L1313.5,909.4L1331,909.1L1393.8,906.4L1391.8,880.7L1341.2,881.4L1340.4,857.7L1390.2,860.1L1390.4,835.3L1344.7,832.6L1342.5,817.3L1395.2,817.4L1398.2,789.3L1314.9,791.5Z" style="fill-rule:nonzero;"/>
    <path d="M1461.5,817.6L1463.5,844.3C1464.1,852.7 1495.8,841.5 1495.1,831.2C1494.3,819 1461.6,819 1461.5,817.6M1506,801.1C1520.1,807.3 1523.5,816.8 1523.2,833.1C1523.1,836 1519,859 1498.3,862.9L1528.4,908.7L1498.7,912L1473.8,869.5L1462.5,870.4L1464.7,913.6L1437.6,910.5C1437.6,910.5 1437.2,792.6 1437.2,792.5C1459,793.2 1480,793.8 1483.8,794.4C1489.9,795.1 1500.9,798.8 1506,801.1" style="fill-rule:nonzero;"/>
    <path d="M1638.6,795.9L1640.4,819.5C1618.8,815.4 1587.8,801.8 1584.7,820.6C1581.6,839.4 1634.1,841.1 1642.6,870.9C1648.2,890.5 1635.6,903.2 1620,904.8C1614.2,905.4 1575.8,905.1 1556.4,897.2C1556.4,897.2 1557.8,876.5 1557.8,875.4C1557.7,876.2 1580,884 1582.1,884.4C1593.3,886.3 1617,886.3 1616.2,875.6C1615.1,861.7 1580.4,850.7 1578.1,849.4C1572.1,846 1565.8,842.5 1561.9,836.8C1555.4,827.5 1556.9,814.1 1563.5,804.8C1580.5,780.9 1614.7,792.7 1638.6,795.9" style="fill-rule:nonzero;"/>
    <path d="M1879.4,796.2L1879.2,821C1880,816.8 1838.4,815.6 1833.3,817.5C1817.5,823.5 1802.6,846.1 1807.8,863.2C1811,873.6 1823.1,883.2 1832.5,886.2C1834.5,886.9 1856,888 1856.1,884.7L1856.8,866L1829.8,863.9L1829.3,843.3L1884.3,846.4C1884.3,846.4 1885.3,900 1885.3,900.1C1885.1,903.9 1855.5,908.3 1852.1,908.8C1834.1,911.6 1815.8,905.9 1802.5,893.4C1787.9,879.5 1775.8,851.3 1782.8,831.3C1788.9,814 1811.7,795.2 1829.1,790.8C1833.6,789.8 1879.5,791.7 1879.4,796.2" style="fill-rule:nonzero;"/>
    <path d="M1936.4,798.1L1966.7,803C1966.6,814.8 1966.5,826.7 1966.3,838.5C1966.2,850.7 1964.7,863.3 1967.5,875.4C1970.5,888.4 1985.1,895.6 1996.2,886.7C2007.3,877.8 2008.2,861.1 2008.9,848.1C2009.1,844.1 2008.1,798.9 2007.7,798.9L2034.6,798.9L2033.7,845.7C2033.3,864.4 2037,888.4 2022.1,902.9C2008.3,916.4 1985.6,919.1 1967.6,913.8C1951.6,909.1 1940.8,889.3 1940.2,873.1C1939.8,863.1 1939.2,853.1 1938.7,843.1C1938,828.2 1937.2,813.1 1936.4,798.1" style="fill-rule:nonzero;"/>
    <path d="M2086,795.7L2085.3,908.6L2113.2,908.5L2115.1,797.8L2086,795.7Z" style="fill-rule:nonzero;"/>
    <path d="M2166.3,790.9L2195.6,795.9L2192.8,881.9L2243.8,887.3L2243.3,908L2178.9,903.6L2164.5,891.3L2166.3,790.9Z" style="fill-rule:nonzero;"/>
    <path d="M2313.1,819C2313.1,819 2311.9,885.1 2311.9,885.2C2311.9,889 2337.7,884.3 2340.2,883.1C2356.4,875.1 2360.2,852.9 2353.3,837.6C2344.9,819 2330.3,819.8 2313.1,819M2355.2,797.8C2374.9,807.3 2386.4,829 2385.5,852.5C2384.2,886.1 2357.5,910.8 2324.6,913.5C2321.3,913.8 2285.1,912.5 2285.1,913.2C2285.5,873.5 2285.9,833.9 2286.4,794.3C2286.5,790.9 2330.2,792.8 2334.3,792.9C2341.5,793 2348.7,794.6 2355.2,797.8" style="fill-rule:nonzero;"/>
</svg>
